<svg xmlns="http://www.w3.org/2000/svg" xmlns:xlink="http://www.w3.org/1999/xlink" viewBox="0 0 1200 800">
  <defs>
    <clipPath id="fe7c9f2b-6d6a-4c03-83dc-c62071d912f5">
      <rect width="1200.22" height="800" style="fill: none"/>
    </clipPath>
    <linearGradient id="420dc790-3081-4f2f-b322-acb6427a4e11" data-name="Rubí" y1="354.89" x2="1201.98" y2="354.89" gradientUnits="userSpaceOnUse">
      <stop offset="0" stop-color="#bf0c42"/>
      <stop offset="0.24" stop-color="#bf0b47"/>
      <stop offset="0.25" stop-color="#bf0b47"/>
      <stop offset="0.43" stop-color="#f6b5b6"/>
      <stop offset="0.46" stop-color="#e9a3a7"/>
      <stop offset="0.56" stop-color="#c8767f"/>
      <stop offset="0.65" stop-color="#ad505e"/>
      <stop offset="0.74" stop-color="#973245"/>
      <stop offset="0.83" stop-color="#881d33"/>
      <stop offset="0.92" stop-color="#7f1028"/>
      <stop offset="1" stop-color="#7c0c24"/>
    </linearGradient>
    <linearGradient id="8f25afe3-13ca-484c-993c-834d024a0b5f" data-name="Degradado sin nombre 19" x1="129.13" y1="329.95" x2="929.13" y2="329.95" gradientTransform="translate(71.7 70.05)" gradientUnits="userSpaceOnUse">
      <stop offset="0.01" stop-color="#230000" stop-opacity="0"/>
      <stop offset="0.8" stop-color="#230000" stop-opacity="0"/>
      <stop offset="0.84" stop-color="#250001" stop-opacity="0.03"/>
      <stop offset="0.88" stop-color="#2d0104" stop-opacity="0.11"/>
      <stop offset="0.91" stop-color="#390309" stop-opacity="0.26"/>
      <stop offset="0.94" stop-color="#4b0510" stop-opacity="0.45"/>
      <stop offset="0.97" stop-color="#620819" stop-opacity="0.71"/>
      <stop offset="1" stop-color="#7c0c24"/>
    </linearGradient>
  </defs>
  <title>Artboard 1</title>
  <g style="isolation: isolate">
    <g id="5e922386-b929-45a9-a894-21ec261291a7" data-name="Layer 1">
      <g>
        <g style="clip-path: url(#fe7c9f2b-6d6a-4c03-83dc-c62071d912f5)">
          <g>
            <path d="M601,654.58h0l.28-.16-.28.16v-.33l-74.55-42.61L601,569v-.33l-75.12-42.94L601,568.7l-75.12,42.94L601,654.58M0,311.07H0M0,826.33H0m1051.74,85.88v42.94H976.62l75.12-42.94M901.49,955.15h0M751.24,912.21v42.94H676.11l75.13-42.94m-601,0v42.94H75.12l75.12-42.94M0,912.21l75.12,42.94H0V912.21m0,44H1201.65v-1H1051.74V912.21l75.12-42.94-75.12,42.94V826.33h0L976.62,783.4l75.12,42.93h0v85.88l-75.12,42.94v0l-75.13-42.94-75.13-42.94,75.13,42.94,75.13,42.94H751.24V912.21h0l75.12-42.94-75.12,42.94h0v0l-75.13,42.94v0L601,912.21l-75.12-42.94L601,912.21l75.12,42.94H450.74V912.21l75.13-42.94-75.13,42.94v42.94H150.25V912.21l75.13-42.94-75.13,42.94v0L75.12,955.15v0L0,912.21V826.33L75.12,783.4,0,826.33H0V654.58H0l75.12-42.94L0,654.58V482.83H0l75.12-42.94L0,482.83V311.08l75.12-42.94L0,311.08H0V139.33L75.12,96.39,0,139.33V-32.42L75.12-75.35,0-32.42V-204.17l74.52-42.6L0-204.17V956.16" style="fill: #de8e3d"/>
            <polyline points="751.24 482.83 751.24 396.96 751.24 396.95 676.11 439.89 751.24 482.83" style="fill: #f36b52"/>
            <polyline points="751.24 396.96 826.36 354.02 751.24 311.08 751.24 396.95 751.24 396.96" style="fill: #db3c3a"/>
            <polyline points="600.99 225.2 600.99 139.33 525.87 182.27 600.99 225.2" style="fill: #1fc0a3"/>
            <polyline points="751.24 225.2 751.24 225.2 826.36 182.27 751.24 139.33 751.24 225.2" style="fill: #008a2f"/>
            <polyline points="1051.74 53.45 1126.86 10.52 1051.74 -32.42 1051.74 53.45" style="fill: #00694e"/>
            <polyline points="450.74 225.2 525.87 182.27 450.74 139.33 450.74 225.2" style="fill: #1fc092"/>
            <polyline points="300.49 482.83 375.62 439.89 300.49 396.95 300.49 482.83" style="fill: #cbbb2a"/>
            <polyline points="901.49 139.33 976.62 96.39 901.49 53.45 901.49 139.33" style="fill: #007466"/>
            <polyline points="600.99 311.08 676.11 268.14 600.99 225.2 600.99 311.07 600.99 311.08" style="fill: #8ece2d"/>
            <polyline points="901.49 53.45 901.49 -32.42 826.36 10.52 901.49 53.45" style="fill: #008a5c"/>
            <polyline points="600.99 396.95 600.99 311.08 525.87 354.02 600.99 396.95" style="fill: #becf2e"/>
            <polyline points="901.49 311.08 976.62 268.14 901.49 225.2 901.49 311.07 901.49 311.08" style="fill: #c92853"/>
            <polyline points="150.25 311.07 150.25 225.2 150.25 225.2 75.12 268.14 150.25 311.07" style="fill: #008893"/>
            <polyline points="300.49 311.08 375.62 268.14 300.49 225.2 300.49 311.07 300.49 311.08" style="fill: #73b00f"/>
            <path d="M150.25,397h0m0,85.88V397h0L75.12,439.89l75.12,42.94" style="fill: #b2aa11"/>
            <path d="M150.25,740.46h0m0,85.88V740.46h0L75.12,783.4l75.12,42.93" style="fill: #bc2f1b"/>
            <polyline points="450.74 396.96 525.87 354.02 450.74 311.08 450.74 396.95 450.74 396.96" style="fill: #c6cb2a"/>
            <path d="M150.25,568.7h0m0,85.88V568.71h0L75.12,611.64l75.12,42.94" style="fill: #cdb22c"/>
            <polyline points="600.99 139.33 676.11 96.39 600.99 53.45 600.99 139.33" style="fill: #10b1a7"/>
            <polyline points="751.24 568.71 826.36 525.77 751.24 482.83 751.24 568.71 751.24 568.71" style="fill: #dc3b45"/>
            <path d="M1051.74,568.7h0m0,85.88V568.71h0l-75.12,42.94,75.12,42.94" style="fill: #f554e9"/>
            <polyline points="600.99 568.71 600.99 482.83 600.99 482.83 525.87 525.77 600.99 568.71" style="fill: #dfa73e"/>
            <polyline points="901.49 740.46 901.49 654.58 826.36 697.52 901.49 740.46" style="fill: #e03f56"/>
            <polyline points="901.49 568.71 901.49 482.83 901.49 482.83 826.36 525.77 901.49 568.71" style="fill: #cf2e49"/>
            <polyline points="450.74 53.45 525.87 10.52 450.74 -32.42 450.74 53.45" style="fill: #00999c"/>
            <polyline points="450.74 568.71 525.87 525.77 450.74 482.83 450.74 568.71 450.74 568.71" style="fill: #dcb33b"/>
            <path d="M1051.74,397h0m0,85.88V397h0l-75.12,42.94,75.12,42.94" style="fill: #fd5c70"/>
            <polyline points="1051.74 311.07 1051.74 225.21 1051.74 225.2 976.62 268.14 1051.74 311.07" style="fill: #0d71ae"/>
            <polyline points="600.99 740.46 600.99 654.58 525.87 697.52 600.99 740.46" style="fill: #d87837"/>
            <polyline points="300.49 396.95 300.49 311.08 225.37 354.02 300.49 396.95" style="fill: #d2c231"/>
            <polyline points="751.24 740.46 826.36 697.52 751.24 654.58 751.24 740.46 751.24 740.46" style="fill: #d45b33"/>
            <polyline points="751.24 139.33 751.24 53.45 676.11 96.39 751.24 139.33" style="fill: #009883"/>
            <polyline points="300.49 225.2 300.49 139.33 225.37 182.27 300.49 225.2" style="fill: #00894b"/>
            <polyline points="300.49 740.46 300.49 654.58 225.37 697.52 300.49 740.46" style="fill: #daa039"/>
            <polyline points="300.49 568.71 300.49 482.83 300.49 482.83 225.37 525.77 300.49 568.71" style="fill: #e4c643"/>
            <polyline points="1051.74 225.2 1126.86 182.27 1051.74 139.33 1051.74 225.2" style="fill: #006474"/>
            <polyline points="1051.74 139.33 1051.74 53.45 976.62 96.39 1051.74 139.33" style="fill: #006f5b"/>
            <polyline points="901.49 396.95 901.49 311.08 826.36 354.02 901.49 396.95" style="fill: #c82744"/>
            <polyline points="450.74 740.46 525.87 697.52 450.74 654.58 450.74 740.46 450.74 740.46" style="fill: #db8a3a"/>
            <polyline points="901.49 225.2 901.49 139.33 826.36 182.27 901.49 225.2" style="fill: #007f51"/>
            <polyline points="300.49 53.45 300.49 -32.42 225.37 10.52 300.49 53.45" style="fill: #0b3cac"/>
            <polyline points="751.24 53.45 751.24 53.45 826.36 10.52 751.24 -32.42 751.24 53.45" style="fill: #009378"/>
            <path d="M450.74,740.46h0m0,85.88V740.46h0L375.62,783.4l75.12,42.93" style="fill: #d36e32"/>
            <polyline points="450.74 139.33 450.74 53.45 375.62 96.39 450.74 139.33" style="fill: #02a390"/>
            <path d="M450.74,397h0m0,85.88V397h0l-75.12,42.94,75.12,42.94" style="fill: #d6c835"/>
            <polyline points="450.74 311.07 450.74 225.21 450.74 225.2 375.62 268.14 450.74 311.07" style="fill: #85cb2a"/>
            <polyline points="1051.74 568.71 1126.86 525.77 1051.74 482.83 1051.74 568.71 1051.74 568.71" style="fill: #ff797d"/>
            <polyline points="1051.74 740.46 1126.86 697.52 1051.74 654.58 1051.74 740.46 1051.74 740.46" style="fill: #11a8b2"/>
            <path d="M1051.74,740.46h0m0,85.88V740.46h0L976.62,783.4l75.12,42.93" style="fill: #15b6b3"/>
            <polyline points="1051.74 396.96 1126.86 354.02 1051.74 311.08 1051.74 396.95 1051.74 396.96" style="fill: #f6556b"/>
            <polyline points="600.99 53.45 600.99 -32.42 525.87 10.52 600.99 53.45" style="fill: #0baaac"/>
            <polyline points="150.25 225.2 225.37 182.27 150.25 139.33 150.25 225.2" style="fill: #a01abb"/>
            <polyline points="150.25 568.71 225.37 525.77 150.25 482.83 150.25 568.71 150.25 568.71" style="fill: #c8ad27"/>
            <polyline points="150.25 740.46 225.37 697.52 150.25 654.58 150.25 740.46 150.25 740.46" style="fill: #c87627"/>
            <polyline points="150.25 396.96 225.37 354.02 150.25 311.08 150.25 396.95 150.25 396.96" style="fill: #abb615"/>
            <polyline points="751.24 826.33 751.24 740.46 751.24 740.46 676.11 783.4 751.24 826.33" style="fill: #d68c35"/>
            <path d="M450.74,568.7h0m0,85.88V568.71h0l-75.12,42.94,75.12,42.94" style="fill: #e0a23f"/>
            <polyline points="1201.65 225.01 1201.65 139.52 1126.86 182.27 1201.65 225.01" style="fill: #0b37ac"/>
            <polyline points="1201.65 396.76 1201.65 311.27 1126.86 354.02 1201.65 396.76" style="fill: #0e73af"/>
            <polyline points="0 654.58 75.12 611.64 0 568.71 0 654.58" style="fill: #3a9200"/>
            <polyline points="901.49 826.33 976.62 783.4 901.49 740.46 901.49 826.33 901.49 826.33" style="fill: #1db9be"/>
            <polyline points="300.49 139.33 375.62 96.39 300.49 53.45 300.49 139.33" style="fill: #005d73"/>
            <polyline points="0 826.33 75.12 783.4 0 740.46 0 826.33 0 826.33" style="fill: #2c2ccd"/>
            <polyline points="1201.65 568.51 1201.65 483.02 1126.86 525.77 1201.65 568.51" style="fill: #226dc3"/>
            <polyline points="751.24 654.58 751.24 568.71 751.24 568.71 676.11 611.64 751.24 654.58" style="fill: #e46043"/>
            <polyline points="901.49 654.58 976.62 611.64 901.49 568.71 901.49 654.58" style="fill: #d83769"/>
            <polyline points="0 139.33 75.12 96.39 0 53.45 0 139.33" style="fill: #005073"/>
            <path d="M601,569l.28-.16-.28-.16V569m.57,85.22,74.55-42.61L601.57,569v85.22m-.57.33.28-.16-.28-.16v.33" style="fill: #da8039"/>
            <polyline points="1201.65 53.26 1201.65 -32.23 1126.86 10.52 1201.65 53.26" style="fill: #005f48"/>
            <polyline points="0 482.83 75.12 439.89 0 396.95 0 482.83" style="fill: #009072"/>
            <polyline points="300.49 654.58 375.62 611.64 300.49 568.71 300.49 654.58" style="fill: #e1a640"/>
            <polyline points="901.49 482.83 976.62 439.89 901.49 396.95 901.49 482.83" style="fill: #d63552"/>
            <polyline points="0 311.08 75.12 268.14 0 225.2 0 311.07 0 311.08" style="fill: #006570"/>
            <polyline points="600.99 826.33 676.11 783.4 600.99 740.46 600.99 826.33 600.99 826.33" style="fill: #dc7d3b"/>
            <polyline points="300.49 826.33 375.62 783.4 300.49 740.46 300.49 826.33 300.49 826.33" style="fill: #c54c24"/>
            <polyline points="600.99 482.83 676.11 439.89 600.99 396.95 600.99 482.83" style="fill: #e3b542"/>
            <polyline points="751.24 311.07 751.24 225.21 751.24 225.2 676.11 268.14 751.24 311.07" style="fill: #c45923"/>
            <polyline points="1201.65 740.27 1201.65 654.77 1126.86 697.52 1201.65 740.27" style="fill: #008ca1"/>
            <polyline points="1126.86 869.27 1126.86 869.27 1201.65 826.52 1201.65 826.14 1126.86 783.4 1126.86 869.27" style="fill: #099aaa"/>
            <polyline points="1201.65 826.14 1201.65 740.65 1126.86 783.4 1201.65 826.14" style="fill: #008ca1"/>
            <polyline points="1126.86 869.27 1126.86 783.4 1051.74 826.33 1126.86 869.27" style="fill: #009099"/>
            <polyline points="1051.74 826.33 1051.74 826.33 1126.86 783.4 1051.74 740.46 1051.74 826.33 1051.74 826.33" style="fill: #039ca4"/>
            <polyline points="1126.86 783.4 1126.86 783.4 1126.86 697.52 1051.74 740.46 1126.86 783.4" style="fill: #00929f"/>
            <polyline points="1126.86 783.4 1126.86 783.4 1201.65 740.65 1201.65 740.27 1126.86 697.52 1126.86 783.4" style="fill: #0893a9"/>
            <polyline points="1126.86 697.52 1126.86 697.52 1201.65 654.77 1201.65 654.39 1126.86 611.64 1126.86 697.52" style="fill: #1693b7"/>
            <polyline points="1201.65 654.39 1201.65 568.89 1126.86 611.64 1201.65 654.39" style="fill: #0e7caf"/>
            <polyline points="1126.86 697.52 1126.86 611.64 1051.74 654.58 1126.86 697.52" style="fill: #1faac0"/>
            <polyline points="1051.74 654.58 1051.74 654.58 1126.86 611.64 1051.74 568.71 1051.74 654.58 1051.74 654.58" style="fill: #5698f7"/>
            <polyline points="1126.86 611.64 1126.86 611.64 1126.86 525.77 1051.74 568.71 1126.86 611.64" style="fill: #ff6985"/>
            <polyline points="1126.86 611.64 1126.86 611.64 1201.65 568.89 1201.65 568.51 1126.86 525.77 1126.86 611.64" style="fill: #4273e3"/>
            <polyline points="1126.86 525.77 1126.86 525.77 1201.65 483.02 1201.65 482.64 1126.86 439.89 1126.86 525.77" style="fill: #7954f5"/>
            <polyline points="1201.65 482.64 1201.65 397.14 1126.86 439.89 1201.65 482.64" style="fill: #2167c2"/>
            <polyline points="1126.86 525.77 1126.86 439.89 1051.74 482.83 1126.86 525.77" style="fill: #ff6c71"/>
            <polyline points="1051.74 482.83 1051.74 482.83 1126.86 439.89 1051.74 396.96 1051.74 482.83" style="fill: #ff7370"/>
            <polyline points="1126.86 439.89 1126.86 439.89 1126.86 354.02 1051.74 396.96 1126.86 439.89" style="fill: #f55464"/>
            <polyline points="1126.86 439.89 1126.86 439.89 1201.65 397.14 1201.65 396.76 1126.86 354.02 1126.86 439.89" style="fill: #c842e3"/>
            <polyline points="1126.86 354.02 1126.86 354.02 1201.65 311.27 1201.65 310.89 1126.86 268.14 1126.86 354.02" style="fill: #2a70cb"/>
            <polyline points="1201.65 310.89 1201.65 225.39 1126.86 268.14 1201.65 310.89" style="fill: #00488f"/>
            <polyline points="1126.86 354.02 1126.86 268.14 1051.74 311.08 1126.86 354.02" style="fill: #9141e2"/>
            <polyline points="1051.74 311.08 1051.74 311.08 1126.86 268.14 1051.74 225.21 1051.74 311.07 1051.74 311.08" style="fill: #3b59dc"/>
            <polyline points="1126.86 268.14 1126.86 268.14 1126.86 182.27 1051.74 225.2 1051.74 225.21 1126.86 268.14" style="fill: #075ca8"/>
            <polyline points="1126.86 268.14 1126.86 268.14 1201.65 225.39 1201.65 225.01 1126.86 182.27 1126.86 268.14" style="fill: #005686"/>
            <polyline points="1126.86 182.27 1126.86 182.27 1201.65 139.52 1201.65 139.14 1126.86 96.39 1126.86 182.27" style="fill: #005b5f"/>
            <polyline points="1201.65 139.14 1201.65 53.64 1126.86 96.39 1201.65 139.14" style="fill: #00515b"/>
            <polyline points="1126.86 182.27 1126.86 96.39 1051.74 139.33 1126.86 182.27" style="fill: #005961"/>
            <polyline points="1051.74 139.33 1051.74 139.33 1126.86 96.39 1051.74 53.45 1051.74 139.33" style="fill: #006658"/>
            <polyline points="1126.86 96.39 1126.86 96.39 1126.86 10.52 1051.74 53.45 1126.86 96.39" style="fill: #006854"/>
            <polyline points="1126.86 96.39 1126.86 96.39 1201.65 53.64 1201.65 53.26 1126.86 10.52 1126.86 96.39" style="fill: #006153"/>
            <polyline points="1126.86 10.52 1126.86 10.52 1201.65 -32.23 1201.65 -32.61 1126.86 -75.35 1126.86 10.52" style="fill: #00694d"/>
            <polyline points="1126.86 10.52 1126.86 -75.35 1051.74 -32.42 1126.86 10.52" style="fill: #00684e"/>
            <polyline points="976.62 869.27 976.62 869.27 976.62 783.4 901.49 826.33 976.62 869.27" style="fill: #09a3aa"/>
            <polyline points="976.62 869.27 976.62 869.27 1051.74 826.33 976.62 783.4 976.62 869.27" style="fill: #09a5aa"/>
            <polyline points="676.11 869.27 676.11 869.27 676.11 783.4 600.99 826.33 676.11 869.27" style="fill: #d56f34"/>
            <polyline points="676.11 869.27 676.11 869.27 751.24 826.33 676.11 783.4 676.11 869.27" style="fill: #d47f33"/>
            <polyline points="375.62 869.27 375.62 869.27 375.62 783.4 300.49 826.33 375.62 869.27" style="fill: #b93718"/>
            <polyline points="375.62 869.27 375.62 869.27 450.74 826.33 375.62 783.4 375.62 869.27" style="fill: #ca5a29"/>
            <polyline points="75.12 869.27 75.12 869.27 75.12 783.4 0 826.33 75.12 869.27" style="fill: #8c007c"/>
            <polyline points="75.12 869.27 75.12 869.27 150.25 826.33 75.12 783.4 75.12 869.27" style="fill: #b4132b"/>
            <polyline points="976.62 783.4 976.62 783.4 1051.74 740.46 976.62 697.52 976.62 783.4" style="fill: #0ea9af"/>
            <polyline points="1051.74 740.46 1051.74 740.46 1051.74 654.58 1051.74 654.58 976.62 697.52 1051.74 740.46" style="fill: #1aabbb"/>
            <polyline points="976.62 783.4 976.62 697.52 901.49 740.46 976.62 783.4" style="fill: #0aa6ab"/>
            <polyline points="901.49 740.46 901.49 740.46 976.62 697.52 901.49 654.58 901.49 740.46" style="fill: #1792b8"/>
            <polyline points="976.62 697.52 976.62 697.52 976.62 611.64 901.49 654.58 901.49 654.58 976.62 697.52" style="fill: #c639da"/>
            <polyline points="976.62 697.52 976.62 697.52 1051.74 654.58 976.62 611.64 976.62 697.52" style="fill: #4b8dec"/>
            <polyline points="676.11 783.4 676.11 783.4 751.24 740.46 676.11 697.52 676.11 783.4" style="fill: #d67a35"/>
            <polyline points="751.24 740.46 751.24 740.46 751.24 654.58 751.24 654.58 676.11 697.52 751.24 740.46" style="fill: #d36932"/>
            <polyline points="676.11 783.4 676.11 697.52 600.99 740.46 676.11 783.4" style="fill: #dc7c3b"/>
            <polyline points="600.99 740.46 600.99 740.46 676.11 697.52 600.99 654.58 600.99 740.46" style="fill: #d77536"/>
            <polyline points="676.11 697.52 676.11 697.52 676.11 611.64 601.57 654.25 601.57 654.58 601.57 654.58 601.28 654.42 600.99 654.58 600.99 654.58 676.11 697.52" style="fill: #d77036"/>
            <polyline points="676.11 697.52 676.11 697.52 751.24 654.58 676.11 611.64 676.11 697.52" style="fill: #e57044"/>
            <polyline points="375.62 783.4 375.62 783.4 450.74 740.46 375.62 697.52 375.62 783.4" style="fill: #d98638"/>
            <polyline points="450.74 740.46 450.74 740.46 450.74 654.58 450.74 654.58 375.62 697.52 450.74 740.46" style="fill: #dd953c"/>
            <polyline points="375.62 783.4 375.62 697.52 300.49 740.46 375.62 783.4" style="fill: #d06b2f"/>
            <polyline points="300.49 740.46 300.49 740.46 375.62 697.52 300.49 654.58 300.49 740.46" style="fill: #d78736"/>
            <polyline points="375.62 697.52 375.62 697.52 375.62 611.64 300.49 654.58 300.49 654.58 375.62 697.52" style="fill: #db973a"/>
            <polyline points="375.62 697.52 375.62 697.52 450.74 654.58 375.62 611.64 375.62 697.52" style="fill: #e19f40"/>
            <polyline points="75.12 783.4 75.12 783.4 150.25 740.46 75.12 697.52 75.12 783.4" style="fill: #b04d0f"/>
            <polyline points="150.25 740.46 150.25 740.46 150.25 654.58 150.25 654.58 75.12 697.52 150.25 740.46" style="fill: #bf871e"/>
            <polyline points="75.12 783.4 75.12 697.52 0 740.46 75.12 783.4" style="fill: #765000"/>
            <polyline points="0 740.46 0 740.46 75.12 697.52 0 654.58 0 740.46" style="fill: #009800"/>
            <polyline points="75.12 697.52 75.12 697.52 75.12 611.64 0 654.58 0 654.58 0 654.58 0 654.58 75.12 697.52" style="fill: #7c8000"/>
            <polyline points="75.12 697.52 75.12 697.52 150.25 654.58 75.12 611.64 75.12 697.52" style="fill: #bb961a"/>
            <polyline points="976.62 611.64 976.62 611.64 1051.74 568.71 976.62 525.77 976.62 611.64" style="fill: #ff6680"/>
            <polyline points="1051.74 568.71 1051.74 568.71 1051.74 482.83 976.62 525.77 1051.74 568.71" style="fill: #ff6f83"/>
            <polyline points="976.62 611.64 976.62 525.77 901.49 568.71 976.62 611.64" style="fill: #ea496d"/>
            <polyline points="901.49 568.71 901.49 568.71 976.62 525.77 901.49 482.83 901.49 568.71" style="fill: #dd3c57"/>
            <polyline points="976.62 525.77 976.62 525.77 976.62 439.89 901.49 482.83 901.49 482.83 976.62 525.77" style="fill: #f04f69"/>
            <polyline points="976.62 525.77 976.62 525.77 1051.74 482.83 976.62 439.89 976.62 525.77" style="fill: #f8576e"/>
            <polyline points="676.11 611.64 676.11 611.64 751.24 568.71 676.11 525.77 676.11 611.64" style="fill: #ec684b"/>
            <polyline points="751.24 568.71 751.24 568.71 751.24 482.83 676.11 525.77 751.24 568.71" style="fill: #e35042"/>
            <polyline points="676.11 611.64 676.11 525.77 600.99 568.71 601.28 568.87 601.57 568.71 601.57 569.03 676.11 611.64" style="fill: #de8e3d"/>
            <polyline points="600.99 568.71 600.99 568.71 676.11 525.77 600.99 482.83 600.99 568.71" style="fill: #e2a141"/>
            <polyline points="676.11 525.77 676.11 525.77 676.11 439.89 600.99 482.83 600.99 482.83 676.11 525.77" style="fill: #e5a944"/>
            <polyline points="676.11 525.77 676.11 525.77 751.24 482.83 676.11 439.89 676.11 525.77" style="fill: #f27a51"/>
            <polyline points="375.62 611.64 375.62 611.64 450.74 568.71 375.62 525.77 375.62 611.64" style="fill: #ddae3c"/>
            <polyline points="450.74 568.71 450.74 568.71 450.74 482.83 375.62 525.77 450.74 568.71" style="fill: #dab839"/>
            <polyline points="375.62 611.64 375.62 525.77 300.49 568.71 375.62 611.64" style="fill: #dab639"/>
            <polyline points="300.49 568.71 300.49 568.71 375.62 525.77 300.49 482.83 300.49 568.71" style="fill: #e0c03f"/>
            <polyline points="375.62 525.77 375.62 525.77 375.62 439.89 300.49 482.83 300.49 482.83 375.62 525.77" style="fill: #d6c035"/>
            <polyline points="375.62 525.77 375.62 525.77 450.74 482.83 375.62 439.89 375.62 525.77" style="fill: #d3b632"/>
            <polyline points="75.12 611.64 75.12 611.64 150.25 568.71 75.12 525.77 75.12 611.64" style="fill: #b49613"/>
            <polyline points="150.25 568.71 150.25 568.71 150.25 482.83 75.12 525.77 150.25 568.71" style="fill: #b9a618"/>
            <polyline points="75.12 611.64 75.12 525.77 0 568.71 75.12 611.64" style="fill: #7e9600"/>
            <polyline points="0 568.71 0 568.71 75.12 525.77 0 482.83 0 568.71" style="fill: #009161"/>
            <polyline points="75.12 525.77 75.12 525.77 75.12 439.89 0 482.83 0 482.83 0 482.83 0 482.83 75.12 525.77" style="fill: #07a867"/>
            <polyline points="75.12 525.77 75.12 525.77 150.25 482.83 75.12 439.89 75.12 525.77" style="fill: #7e9d00"/>
            <polyline points="976.62 439.89 976.62 439.89 1051.74 396.95 976.62 354.02 976.62 439.89" style="fill: #ed4c6a"/>
            <polyline points="1051.74 396.95 1051.74 396.95 1051.74 311.08 1051.74 311.07 976.62 354.02 1051.74 396.95" style="fill: #e84775"/>
            <polyline points="976.62 439.89 976.62 354.02 901.49 396.95 976.62 439.89" style="fill: #df3e5d"/>
            <polyline points="901.49 396.95 901.49 396.95 976.62 354.02 901.49 311.08 901.49 396.95" style="fill: #d43355"/>
            <polyline points="976.62 354.02 976.62 354.02 976.62 268.14 901.49 311.08 976.62 354.02" style="fill: #d13061"/>
            <polyline points="976.62 354.02 976.62 354.02 1051.74 311.07 976.62 268.14 976.62 354.02" style="fill: #d5347f"/>
            <polyline points="676.11 439.89 676.11 439.89 751.24 396.95 676.11 354.02 676.11 439.89" style="fill: #ee7c4d"/>
            <polyline points="751.24 396.95 751.24 396.95 751.24 311.08 751.24 311.07 676.11 354.02 751.24 396.95" style="fill: #d95d38"/>
            <polyline points="676.11 439.89 676.11 354.02 600.99 396.95 676.11 439.89" style="fill: #e29a41"/>
            <polyline points="600.99 396.95 600.99 396.95 676.11 354.02 600.99 311.08 600.99 396.95" style="fill: #dab639"/>
            <polyline points="676.11 354.02 676.11 354.02 676.11 268.14 600.99 311.08 676.11 354.02" style="fill: #c2af21"/>
            <polyline points="676.11 354.02 676.11 354.02 751.24 311.07 676.11 268.14 676.11 354.02" style="fill: #d98038"/>
            <polyline points="375.62 439.89 375.62 439.89 450.74 396.95 375.62 354.02 375.62 439.89" style="fill: #d3c732"/>
            <polyline points="450.74 396.95 450.74 396.95 450.74 311.08 450.74 311.07 375.62 354.02 450.74 396.95" style="fill: #c3c726"/>
            <polyline points="375.62 439.89 375.62 354.02 300.49 396.95 375.62 439.89" style="fill: #cec32d"/>
            <polyline points="300.49 396.95 300.49 396.95 375.62 354.02 300.49 311.08 300.49 396.95" style="fill: #c6b925"/>
            <polyline points="375.62 354.02 375.62 354.02 375.62 268.14 300.49 311.08 375.62 354.02" style="fill: #a7b615"/>
            <polyline points="375.62 354.02 375.62 354.02 450.74 311.07 375.62 268.14 375.62 354.02" style="fill: #afc01f"/>
            <polyline points="75.12 439.89 75.12 439.89 150.25 396.95 75.12 354.02 75.12 439.89" style="fill: #56bf1e"/>
            <polyline points="150.25 396.95 150.25 396.95 150.25 311.08 150.25 311.07 75.12 354.02 150.25 396.95" style="fill: #4dc423"/>
            <polyline points="75.12 439.89 75.12 354.02 0 396.95 75.12 439.89" style="fill: #02a378"/>
            <polyline points="0 396.95 0 396.95 75.12 354.02 0 311.08 0 396.95" style="fill: #009274"/>
            <polyline points="75.12 354.02 75.12 354.02 75.12 268.14 0 311.08 75.12 354.02" style="fill: #009690"/>
            <polyline points="75.12 354.02 75.12 354.02 150.25 311.07 75.12 268.14 75.12 354.02" style="fill: #009b82"/>
            <polyline points="976.62 268.14 976.62 268.14 1051.74 225.2 976.62 182.27 976.62 268.14" style="fill: #00728c"/>
            <polyline points="1051.74 225.2 1051.74 225.2 1051.74 139.33 976.62 182.27 1051.74 225.2" style="fill: #006f68"/>
            <polyline points="976.62 268.14 976.62 182.27 901.49 225.2 976.62 268.14" style="fill: #1768b8"/>
            <polyline points="901.49 225.2 901.49 225.2 976.62 182.27 901.49 139.33 901.49 225.2" style="fill: #00785a"/>
            <polyline points="976.62 182.27 976.62 182.27 976.62 96.39 901.49 139.33 976.62 182.27" style="fill: #007859"/>
            <polyline points="976.62 182.27 976.62 182.27 1051.74 139.33 976.62 96.39 976.62 182.27" style="fill: #00705f"/>
            <polyline points="676.11 268.14 676.11 268.14 751.24 225.2 676.11 182.27 676.11 268.14" style="fill: #0dae35"/>
            <polyline points="751.24 225.2 751.24 225.2 751.24 139.33 676.11 182.27 751.24 225.2" style="fill: #01a273"/>
            <polyline points="676.11 268.14 676.11 182.27 600.99 225.2 676.11 268.14" style="fill: #54c726"/>
            <polyline points="600.99 225.2 600.99 225.2 676.11 182.27 600.99 139.33 600.99 225.2" style="fill: #2dce86"/>
            <polyline points="676.11 182.27 676.11 182.27 676.11 96.39 600.99 139.33 676.11 182.27" style="fill: #10b196"/>
            <polyline points="676.11 182.27 676.11 182.27 751.24 139.33 676.11 96.39 676.11 182.27" style="fill: #02a38d"/>
            <polyline points="375.62 268.14 375.62 268.14 450.74 225.2 375.62 182.27 375.62 268.14" style="fill: #7ac423"/>
            <polyline points="450.74 225.2 450.74 225.2 450.74 139.33 375.62 182.27 450.74 225.2" style="fill: #2acb62"/>
            <polyline points="375.62 268.14 375.62 182.27 300.49 225.2 375.62 268.14" style="fill: #20c13d"/>
            <polyline points="300.49 225.2 300.49 225.2 375.62 182.27 300.49 139.33 300.49 225.2" style="fill: #13b453"/>
            <polyline points="375.62 182.27 375.62 182.27 375.62 96.39 300.49 139.33 375.62 182.27" style="fill: #008671"/>
            <polyline points="375.62 182.27 375.62 182.27 450.74 139.33 375.62 96.39 375.62 182.27" style="fill: #01a27d"/>
            <polyline points="150.25 139.33 150.25 53.45 75.12 96.39 150.25 139.33" style="fill: #5e0dae"/>
            <polyline points="150.25 53.45 225.37 10.52 150.25 -32.42 150.25 53.45" style="fill: #5b00a1"/>
            <polyline points="75.12 268.14 75.12 268.14 150.25 225.2 75.12 182.27 75.12 268.14" style="fill: #005892"/>
            <polyline points="150.25 225.2 150.25 225.2 150.25 139.33 75.12 182.27 150.25 225.2" style="fill: #3423c4"/>
            <polyline points="75.12 268.14 75.12 182.27 0 225.2 75.12 268.14" style="fill: #00547e"/>
            <polyline points="0 225.2 0 225.2 75.12 182.27 0 139.33 0 225.2" style="fill: #005974"/>
            <polyline points="75.12 182.27 75.12 182.27 75.12 96.39 0 139.33 75.12 182.27" style="fill: #005172"/>
            <polyline points="75.12 182.27 75.12 182.27 150.25 139.33 75.12 96.39 75.12 182.27" style="fill: #6317b8"/>
            <polyline points="976.62 96.39 976.62 96.39 1051.74 53.45 976.62 10.52 976.62 96.39" style="fill: #007c5e"/>
            <polyline points="1051.74 53.45 1051.74 53.45 1051.74 -32.42 976.62 10.52 1051.74 53.45" style="fill: #007054"/>
            <polyline points="976.62 96.39 976.62 10.52 901.49 53.45 976.62 96.39" style="fill: #007f58"/>
            <polyline points="901.49 53.45 901.49 53.45 976.62 10.52 901.49 -32.42 901.49 53.45" style="fill: #007b5a"/>
            <polyline points="976.62 10.52 976.62 10.52 976.62 -75.35 901.49 -32.42 976.62 10.52" style="fill: #007f60"/>
            <polyline points="976.62 10.52 976.62 10.52 1051.74 -32.42 976.62 -75.35 976.62 10.52" style="fill: #00785d"/>
            <polyline points="676.11 96.39 676.11 96.39 751.24 53.45 676.11 10.52 676.11 96.39" style="fill: #00a196"/>
            <polyline points="751.24 53.45 751.24 53.45 751.24 -32.42 676.11 10.52 751.24 53.45" style="fill: #00998c"/>
            <polyline points="676.11 96.39 676.11 10.52 600.99 53.45 676.11 96.39" style="fill: #05a6a1"/>
            <polyline points="600.99 53.45 600.99 53.45 676.11 10.52 600.99 -32.42 600.99 53.45" style="fill: #07a8a8"/>
            <polyline points="676.11 10.52 676.11 10.52 676.11 -75.35 600.99 -32.42 676.11 10.52" style="fill: #05a4a6"/>
            <polyline points="676.11 10.52 676.11 10.52 751.24 -32.42 676.11 -75.35 676.11 10.52" style="fill: #009e96"/>
            <polyline points="375.62 96.39 375.62 96.39 450.74 53.45 375.62 10.52 375.62 96.39" style="fill: #009287"/>
            <polyline points="450.74 53.45 450.74 53.45 450.74 -32.42 375.62 10.52 450.74 53.45" style="fill: #00838d"/>
            <polyline points="375.62 96.39 375.62 10.52 300.49 53.45 375.62 96.39" style="fill: #00697b"/>
            <polyline points="300.49 53.45 300.49 53.45 375.62 10.52 300.49 -32.42 300.49 53.45" style="fill: #00557b"/>
            <polyline points="375.62 10.52 375.62 10.52 375.62 -75.35 300.49 -32.42 375.62 10.52" style="fill: #005680"/>
            <polyline points="375.62 10.52 375.62 10.52 450.74 -32.42 375.62 -75.35 375.62 10.52" style="fill: #006787"/>
            <polyline points="75.12 96.39 75.12 96.39 150.25 53.45 75.12 10.52 75.12 96.39" style="fill: #003090"/>
            <polyline points="150.25 53.45 150.25 53.45 150.25 -32.42 75.12 10.52 150.25 53.45" style="fill: #091faa"/>
            <polyline points="75.12 96.39 75.12 10.52 0 53.45 75.12 96.39" style="fill: #004870"/>
            <polyline points="0 53.45 0 53.45 75.12 10.52 0 -32.42 0 53.45" style="fill: #00506a"/>
            <polyline points="75.12 10.52 75.12 10.52 75.12 -75.35 0 -32.42 75.12 10.52" style="fill: #004b6a"/>
            <polyline points="75.12 10.52 75.12 10.52 150.25 -32.42 75.12 -75.35 75.12 10.52" style="fill: #00264c"/>
            <polyline points="826.36 869.27 826.36 869.27 901.49 826.33 826.36 783.4 826.36 869.27" style="fill: #14b562"/>
            <polyline points="901.49 826.33 901.49 826.33 901.49 826.33 901.49 740.46 826.36 783.4 901.49 826.33" style="fill: #12b38a"/>
            <polyline points="826.36 869.27 826.36 783.4 751.24 826.33 826.36 869.27" style="fill: #62ad0c"/>
            <polyline points="751.24 740.46 751.24 740.46 751.24 740.46 751.24 740.46" style="fill: #6697ff"/>
            <polyline points="751.24 826.33 751.24 826.33 826.36 783.4 751.24 740.46 751.24 826.33 751.24 826.33" style="fill: #ba8919"/>
            <polyline points="826.36 783.4 826.36 783.4 826.36 697.52 751.24 740.46 751.24 740.46 826.36 783.4" style="fill: #bc761b"/>
            <polyline points="826.36 783.4 826.36 783.4 901.49 740.46 826.36 697.52 826.36 783.4" style="fill: #32bd1c"/>
            <polyline points="525.87 869.27 525.87 869.27 600.99 826.33 525.87 783.4 525.87 869.27" style="fill: #d56934"/>
            <polyline points="600.99 826.33 600.99 826.33 600.99 826.33 600.99 740.46 525.87 783.4 600.99 826.33" style="fill: #e98648"/>
            <polyline points="525.87 869.27 525.87 783.4 450.74 826.33 525.87 869.27" style="fill: #c84f27"/>
            <polyline points="450.74 826.33 450.74 826.33 525.87 783.4 450.74 740.46 450.74 826.33 450.74 826.33" style="fill: #d36432"/>
            <polyline points="525.87 783.4 525.87 783.4 525.87 697.52 450.74 740.46 525.87 783.4" style="fill: #d87537"/>
            <polyline points="525.87 783.4 525.87 783.4 600.99 740.46 525.87 697.52 525.87 783.4" style="fill: #da7f39"/>
            <polyline points="225.37 869.27 225.37 869.27 300.49 826.33 225.37 783.4 225.37 869.27" style="fill: #b92b18"/>
            <polyline points="300.49 826.33 300.49 826.33 300.49 826.33 300.49 740.46 225.37 783.4 300.49 826.33" style="fill: #cd602c"/>
            <polyline points="225.37 869.27 225.37 783.4 150.25 826.33 225.37 869.27" style="fill: #ba2119"/>
            <polyline points="150.25 826.33 150.25 826.33 225.37 783.4 150.25 740.46 150.25 826.33 150.25 826.33" style="fill: #c0311f"/>
            <polyline points="225.37 783.4 225.37 783.4 225.37 697.52 150.25 740.46 225.37 783.4" style="fill: #cd602c"/>
            <polyline points="225.37 783.4 225.37 783.4 300.49 740.46 225.37 697.52 225.37 783.4" style="fill: #cd6c2c"/>
            <polyline points="826.36 697.52 826.36 697.52 901.49 654.58 826.36 611.64 826.36 697.52" style="fill: #dc3b4d"/>
            <polyline points="901.49 654.58 901.49 654.58 901.49 654.58 901.49 568.71 826.36 611.64 901.49 654.58" style="fill: #d53457"/>
            <polyline points="826.36 697.52 826.36 611.64 751.24 654.58 826.36 697.52" style="fill: #de453d"/>
            <polyline points="751.24 654.58 751.24 654.58 826.36 611.64 751.24 568.71 751.24 654.58 751.24 654.58" style="fill: #de493d"/>
            <polyline points="751.24 568.71 751.24 568.71 751.24 568.71 751.24 568.71" style="fill: #6697ff"/>
            <polyline points="826.36 611.64 826.36 611.64 826.36 525.77 751.24 568.71 751.24 568.71 826.36 611.64" style="fill: #d93845"/>
            <polyline points="826.36 611.64 826.36 611.64 901.49 568.71 826.36 525.77 826.36 611.64" style="fill: #d4334e"/>
            <polyline points="525.87 697.52 525.87 697.52 600.99 654.58 525.87 611.64 525.87 697.52" style="fill: #da8139"/>
            <polyline points="600.99 654.26 600.99 569.03 526.44 611.64 600.99 654.26" style="fill: #e98648"/>
            <polyline points="601.28 654.42 601.57 654.25 601.57 569.03 601.28 568.87 600.99 569.03 600.99 654.26 601.28 654.42" style="fill: #e28f41"/>
            <polyline points="601.57 654.58 601.57 654.58 601.57 654.25 601.28 654.42 601.57 654.58" style="fill: #de7f3d"/>
            <polyline points="601.57 569.03 601.57 568.71 601.28 568.87 601.57 569.03" style="fill: #e59a44"/>
            <polyline points="525.87 697.52 525.87 611.64 450.74 654.58 525.87 697.52" style="fill: #dd8c3c"/>
            <polyline points="450.74 654.58 450.74 654.58 525.87 611.64 450.74 568.71 450.74 654.58 450.74 654.58" style="fill: #df923e"/>
            <polyline points="525.87 611.64 525.87 611.64 525.87 525.77 450.74 568.71 525.87 611.64" style="fill: #dea33d"/>
            <polyline points="525.87 611.64 525.87 611.64 600.99 568.71 525.87 525.77 525.87 611.64" style="fill: #de983d"/>
            <polyline points="225.37 697.52 225.37 697.52 300.49 654.58 225.37 611.64 225.37 697.52" style="fill: #e0ba3f"/>
            <polyline points="300.49 654.58 300.49 654.58 300.49 654.58 300.49 568.71 225.37 611.64 300.49 654.58" style="fill: #e4c543"/>
            <polyline points="225.37 697.52 225.37 611.64 150.25 654.58 225.37 697.52" style="fill: #e3c342"/>
            <polyline points="150.25 654.58 150.25 654.58 225.37 611.64 150.25 568.71 150.25 654.58 150.25 654.58" style="fill: #debf3d"/>
            <polyline points="225.37 611.64 225.37 611.64 225.37 525.77 150.25 568.71 225.37 611.64" style="fill: #d2b731"/>
            <polyline points="225.37 611.64 225.37 611.64 300.49 568.71 225.37 525.77 225.37 611.64" style="fill: #d9be38"/>
            <polyline points="826.36 525.77 826.36 525.77 901.49 482.83 826.36 439.89 826.36 525.77" style="fill: #ba1933"/>
            <polyline points="901.49 482.83 901.49 482.83 901.49 396.95 826.36 439.89 901.49 482.83" style="fill: #cc2b53"/>
            <polyline points="826.36 525.77 826.36 439.89 751.24 482.83 826.36 525.77" style="fill: #d73647"/>
            <polyline points="751.24 482.83 751.24 482.83 826.36 439.89 751.24 396.96 751.24 482.83" style="fill: #ef4e58"/>
            <polyline points="751.24 396.96 751.24 396.96 751.24 396.95 751.24 396.96" style="fill: #6697ff"/>
            <polyline points="826.36 439.89 826.36 439.89 826.36 354.02 751.24 396.96 751.24 396.96 826.36 439.89" style="fill: #e44353"/>
            <polyline points="826.36 439.89 826.36 439.89 901.49 396.95 826.36 354.02 826.36 439.89" style="fill: #c82745"/>
            <polyline points="525.87 525.77 525.87 525.77 600.99 482.83 525.87 439.89 525.87 525.77" style="fill: #dfc73e"/>
            <polyline points="600.99 482.83 600.99 482.83 600.99 396.95 525.87 439.89 600.99 482.83" style="fill: #dbc53a"/>
            <polyline points="525.87 525.77 525.87 439.89 450.74 482.83 525.87 525.77" style="fill: #e3cb42"/>
            <polyline points="450.74 482.83 450.74 482.83 525.87 439.89 450.74 396.96 450.74 482.83" style="fill: #d9cb38"/>
            <polyline points="525.87 439.89 525.87 439.89 525.87 354.02 450.74 396.96 525.87 439.89" style="fill: #e0d43f"/>
            <polyline points="525.87 439.89 525.87 439.89 600.99 396.95 525.87 354.02 525.87 439.89" style="fill: #d4cd33"/>
            <polyline points="225.37 525.77 225.37 525.77 300.49 482.83 225.37 439.89 225.37 525.77" style="fill: #d2be31"/>
            <polyline points="300.49 482.83 300.49 482.83 300.49 396.95 225.37 439.89 300.49 482.83" style="fill: #cbba2a"/>
            <polyline points="225.37 525.77 225.37 439.89 150.25 482.83 225.37 525.77" style="fill: #ccba2b"/>
            <polyline points="150.25 482.83 150.25 482.83 225.37 439.89 150.25 396.96 150.25 482.83" style="fill: #c0b71f"/>
            <polyline points="225.37 439.89 225.37 439.89 225.37 354.02 150.25 396.96 225.37 439.89" style="fill: #bdb21c"/>
            <polyline points="225.37 439.89 225.37 439.89 300.49 396.95 225.37 354.02 225.37 439.89" style="fill: #c8bd27"/>
            <polyline points="826.36 354.02 826.36 354.02 901.49 311.08 826.36 268.14 826.36 354.02" style="fill: #c92841"/>
            <polyline points="901.49 311.08 901.49 311.08 901.49 311.07 901.49 225.2 826.36 268.14 901.49 311.08" style="fill: #c82727"/>
            <polyline points="826.36 354.02 826.36 268.14 751.24 311.08 826.36 354.02" style="fill: #ce2d35"/>
            <polyline points="751.24 225.21 751.24 225.2 751.24 225.2 751.24 225.21" style="fill: #6697ff"/>
            <polyline points="751.24 311.08 751.24 311.08 826.36 268.14 751.24 225.21 751.24 311.07 751.24 311.08" style="fill: #cd3b2c"/>
            <polyline points="826.36 268.14 826.36 268.14 826.36 182.27 751.24 225.2 751.24 225.21 826.36 268.14" style="fill: #b43513"/>
            <polyline points="826.36 268.14 826.36 268.14 901.49 225.2 826.36 182.27 826.36 268.14" style="fill: #297a00"/>
            <polyline points="525.87 354.02 525.87 354.02 600.99 311.08 525.87 268.14 525.87 354.02" style="fill: #94d635"/>
            <polyline points="600.99 311.08 600.99 311.08 600.99 311.07 600.99 225.2 525.87 268.14 600.99 311.08" style="fill: #5de443"/>
            <polyline points="525.87 354.02 525.87 268.14 450.74 311.08 525.87 354.02" style="fill: #96cc2b"/>
            <polyline points="450.74 311.08 450.74 311.08 525.87 268.14 450.74 225.21 450.74 311.07 450.74 311.08" style="fill: #57dd3c"/>
            <polyline points="525.87 268.14 525.87 268.14 525.87 182.27 450.74 225.2 450.74 225.21 525.87 268.14" style="fill: #2ecf80"/>
            <polyline points="525.87 268.14 525.87 268.14 600.99 225.2 525.87 182.27 525.87 268.14" style="fill: #30d18a"/>
            <polyline points="225.37 354.02 225.37 354.02 300.49 311.08 225.37 268.14 225.37 354.02" style="fill: #b8ab17"/>
            <polyline points="300.49 311.08 300.49 311.08 300.49 311.07 300.49 225.2 225.37 268.14 300.49 311.08" style="fill: #8da100"/>
            <polyline points="225.37 354.02 225.37 268.14 150.25 311.08 225.37 354.02" style="fill: #96aa09"/>
            <polyline points="150.25 311.08 150.25 311.08 225.37 268.14 150.25 225.2 150.25 311.07 150.25 311.08" style="fill: #23b00f"/>
            <polyline points="225.37 268.14 225.37 268.14 225.37 182.27 150.25 225.2 150.25 225.2 225.37 268.14" style="fill: #6c8000"/>
            <polyline points="225.37 268.14 225.37 268.14 300.49 225.2 225.37 182.27 225.37 268.14" style="fill: #6c8600"/>
            <polyline points="826.36 182.27 826.36 182.27 901.49 139.33 826.36 96.39 826.36 182.27" style="fill: #00854c"/>
            <polyline points="901.49 139.33 901.49 139.33 901.49 53.45 826.36 96.39 901.49 139.33" style="fill: #008152"/>
            <polyline points="826.36 182.27 826.36 96.39 751.24 139.33 826.36 182.27" style="fill: #008946"/>
            <polyline points="751.24 139.33 751.24 139.33 826.36 96.39 751.24 53.45 751.24 139.33" style="fill: #008f65"/>
            <polyline points="826.36 96.39 826.36 96.39 826.36 10.52 751.24 53.45 751.24 53.45 826.36 96.39" style="fill: #00996e"/>
            <polyline points="826.36 96.39 826.36 96.39 901.49 53.45 826.36 10.52 826.36 96.39" style="fill: #008856"/>
            <polyline points="525.87 182.27 525.87 182.27 600.99 139.33 525.87 96.39 525.87 182.27" style="fill: #11b2a2"/>
            <polyline points="600.99 139.33 600.99 139.33 600.99 53.45 525.87 96.39 600.99 139.33" style="fill: #09aaa5"/>
            <polyline points="525.87 182.27 525.87 96.39 450.74 139.33 525.87 182.27" style="fill: #10b1a3"/>
            <polyline points="450.74 139.33 450.74 139.33 525.87 96.39 450.74 53.45 450.74 139.33" style="fill: #04a59a"/>
            <polyline points="525.87 96.39 525.87 96.39 525.87 10.52 450.74 53.45 525.87 96.39" style="fill: #07a8a6"/>
            <polyline points="525.87 96.39 525.87 96.39 600.99 53.45 525.87 10.52 525.87 96.39" style="fill: #11b2b1"/>
            <polyline points="225.37 182.27 225.37 182.27 300.49 139.33 225.37 96.39 225.37 182.27" style="fill: #006a82"/>
            <polyline points="300.49 139.33 300.49 139.33 300.49 53.45 225.37 96.39 300.49 139.33" style="fill: #00627e"/>
            <polyline points="225.37 182.27 225.37 96.39 150.25 139.33 225.37 182.27" style="fill: #6317b8"/>
            <polyline points="150.25 139.33 150.25 139.33 225.37 96.39 150.25 53.45 150.25 139.33" style="fill: #5b00a1"/>
            <polyline points="225.37 96.39 225.37 96.39 225.37 10.52 150.25 53.45 225.37 96.39" style="fill: #2323c4"/>
            <polyline points="225.37 96.39 225.37 96.39 300.49 53.45 225.37 10.52 225.37 96.39" style="fill: #2115b6"/>
            <polyline points="826.36 10.52 826.36 10.52 901.49 -32.42 826.36 -75.35 826.36 10.52" style="fill: #008d61"/>
            <polyline points="826.36 10.52 826.36 -75.35 751.24 -32.42 826.36 10.52" style="fill: #00a17e"/>
            <polyline points="525.87 10.52 525.87 10.52 600.99 -32.42 525.87 -75.35 525.87 10.52" style="fill: #09a0aa"/>
            <polyline points="525.87 10.52 525.87 -75.35 450.74 -32.42 525.87 10.52" style="fill: #069fa7"/>
            <polyline points="225.37 10.52 225.37 10.52 300.49 -32.42 225.37 -75.35 225.37 10.52" style="fill: #1116b2"/>
            <polyline points="225.37 10.52 225.37 -75.35 150.25 -32.42 225.37 10.52" style="fill: #0210a3"/>
          </g>
          <rect y="-246.83" width="1201.98" height="1201.98" style="fill: none"/>
          <g>
            <path d="M601,654.58h0l.28-.16-.28.16v-.33l-74.55-42.61L601,569v-.33l-75.12-42.94L601,568.7l-75.12,42.94L601,654.58M0,311.07H0M0,826.33H0m1051.74,85.88v42.94H976.62l75.12-42.94M901.49,955.15h0M751.24,912.21v42.94H676.11l75.13-42.94m-601,0v42.94H75.12l75.12-42.94M0,912.21l75.12,42.94H0V912.21m0,44H1201.65v-1H1051.74V912.21l75.12-42.94-75.12,42.94V826.33h0L976.62,783.4l75.12,42.93h0v85.88l-75.12,42.94v0l-75.13-42.94-75.13-42.94,75.13,42.94,75.13,42.94H751.24V912.21h0l75.12-42.94-75.12,42.94h0v0l-75.13,42.94v0L601,912.21l-75.12-42.94L601,912.21l75.12,42.94H450.74V912.21l75.13-42.94-75.13,42.94v42.94H150.25V912.21l75.13-42.94-75.13,42.94v0L75.12,955.15v0L0,912.21V826.33L75.12,783.4,0,826.33H0V654.58H0l75.12-42.94L0,654.58V482.83H0l75.12-42.94L0,482.83V311.08l75.12-42.94L0,311.08H0V139.33L75.12,96.39,0,139.33V-32.42L75.12-75.35,0-32.42V-204.17l74.52-42.6L0-204.17V956.16" style="fill: #de8e3d"/>
            <polyline points="751.24 482.83 751.24 396.96 751.24 396.95 676.11 439.89 751.24 482.83" style="fill: #f36b52"/>
            <polyline points="751.24 396.96 826.36 354.02 751.24 311.08 751.24 396.95 751.24 396.96" style="fill: #db3c3a"/>
            <polyline points="600.99 225.2 600.99 139.33 525.87 182.27 600.99 225.2" style="fill: #1fc0a3"/>
            <polyline points="751.24 225.2 751.24 225.2 826.36 182.27 751.24 139.33 751.24 225.2" style="fill: #008a2f"/>
            <polyline points="1051.74 53.45 1126.86 10.52 1051.74 -32.42 1051.74 53.45" style="fill: #00694e"/>
            <polyline points="450.74 225.2 525.87 182.27 450.74 139.33 450.74 225.2" style="fill: #1fc092"/>
            <polyline points="300.49 482.83 375.62 439.89 300.49 396.95 300.49 482.83" style="fill: #cbbb2a"/>
            <polyline points="901.49 139.33 976.62 96.39 901.49 53.45 901.49 139.33" style="fill: #007466"/>
            <polyline points="600.99 311.08 676.11 268.14 600.99 225.2 600.99 311.07 600.99 311.08" style="fill: #8ece2d"/>
            <polyline points="901.49 53.45 901.49 -32.42 826.36 10.52 901.49 53.45" style="fill: #008a5c"/>
            <polyline points="600.99 396.95 600.99 311.08 525.87 354.02 600.99 396.95" style="fill: #becf2e"/>
            <polyline points="901.49 311.08 976.62 268.14 901.49 225.2 901.49 311.07 901.49 311.08" style="fill: #c92853"/>
            <polyline points="150.25 311.07 150.25 225.2 150.25 225.2 75.12 268.14 150.25 311.07" style="fill: #008893"/>
            <polyline points="300.49 311.08 375.62 268.14 300.49 225.2 300.49 311.07 300.49 311.08" style="fill: #73b00f"/>
            <path d="M150.25,397h0m0,85.88V397h0L75.12,439.89l75.12,42.94" style="fill: #b2aa11"/>
            <path d="M150.25,740.46h0m0,85.88V740.46h0L75.12,783.4l75.12,42.93" style="fill: #bc2f1b"/>
            <polyline points="450.74 396.96 525.87 354.02 450.74 311.08 450.74 396.95 450.74 396.96" style="fill: #c6cb2a"/>
            <path d="M150.25,568.7h0m0,85.88V568.71h0L75.12,611.64l75.12,42.94" style="fill: #cdb22c"/>
            <polyline points="600.99 139.33 676.11 96.39 600.99 53.45 600.99 139.33" style="fill: #10b1a7"/>
            <polyline points="751.24 568.71 826.36 525.77 751.24 482.83 751.24 568.71 751.24 568.71" style="fill: #dc3b45"/>
            <path d="M1051.74,568.7h0m0,85.88V568.71h0l-75.12,42.94,75.12,42.94" style="fill: #f554e9"/>
            <polyline points="600.99 568.71 600.99 482.83 600.99 482.83 525.87 525.77 600.99 568.71" style="fill: #dfa73e"/>
            <polyline points="901.49 740.46 901.49 654.58 826.36 697.52 901.49 740.46" style="fill: #e03f56"/>
            <polyline points="901.49 568.71 901.49 482.83 901.49 482.83 826.36 525.77 901.49 568.71" style="fill: #cf2e49"/>
            <polyline points="450.74 53.45 525.87 10.52 450.74 -32.42 450.74 53.45" style="fill: #00999c"/>
            <polyline points="450.74 568.71 525.87 525.77 450.74 482.83 450.74 568.71 450.74 568.71" style="fill: #dcb33b"/>
            <path d="M1051.74,397h0m0,85.88V397h0l-75.12,42.94,75.12,42.94" style="fill: #fd5c70"/>
            <polyline points="1051.74 311.07 1051.74 225.21 1051.74 225.2 976.62 268.14 1051.74 311.07" style="fill: #0d71ae"/>
            <polyline points="600.99 740.46 600.99 654.58 525.87 697.52 600.99 740.46" style="fill: #d87837"/>
            <polyline points="300.49 396.95 300.49 311.08 225.37 354.02 300.49 396.95" style="fill: #d2c231"/>
            <polyline points="751.24 740.46 826.36 697.52 751.24 654.58 751.24 740.46 751.24 740.46" style="fill: #d45b33"/>
            <polyline points="751.24 139.33 751.24 53.45 676.11 96.39 751.24 139.33" style="fill: #009883"/>
            <polyline points="300.49 225.2 300.49 139.33 225.37 182.27 300.49 225.2" style="fill: #00894b"/>
            <polyline points="300.49 740.46 300.49 654.58 225.37 697.52 300.49 740.46" style="fill: #daa039"/>
            <polyline points="300.49 568.71 300.49 482.83 300.49 482.83 225.37 525.77 300.49 568.71" style="fill: #e4c643"/>
            <polyline points="1051.74 225.2 1126.86 182.27 1051.74 139.33 1051.74 225.2" style="fill: #006474"/>
            <polyline points="1051.74 139.33 1051.74 53.45 976.62 96.39 1051.74 139.33" style="fill: #006f5b"/>
            <polyline points="901.49 396.95 901.49 311.08 826.36 354.02 901.49 396.95" style="fill: #c82744"/>
            <polyline points="450.74 740.46 525.87 697.52 450.74 654.58 450.74 740.46 450.74 740.46" style="fill: #db8a3a"/>
            <polyline points="901.49 225.2 901.49 139.33 826.36 182.27 901.49 225.2" style="fill: #007f51"/>
            <polyline points="300.49 53.45 300.49 -32.42 225.37 10.52 300.49 53.45" style="fill: #0b3cac"/>
            <polyline points="751.24 53.45 751.24 53.45 826.36 10.52 751.24 -32.42 751.24 53.45" style="fill: #009378"/>
            <path d="M450.74,740.46h0m0,85.88V740.46h0L375.62,783.4l75.12,42.93" style="fill: #d36e32"/>
            <polyline points="450.74 139.33 450.74 53.45 375.62 96.39 450.74 139.33" style="fill: #02a390"/>
            <path d="M450.74,397h0m0,85.88V397h0l-75.12,42.94,75.12,42.94" style="fill: #d6c835"/>
            <polyline points="450.74 311.07 450.74 225.21 450.74 225.2 375.62 268.14 450.74 311.07" style="fill: #85cb2a"/>
            <polyline points="1051.74 568.71 1126.86 525.77 1051.74 482.83 1051.74 568.71 1051.74 568.71" style="fill: #ff797d"/>
            <polyline points="1051.74 740.46 1126.86 697.52 1051.74 654.58 1051.74 740.46 1051.74 740.46" style="fill: #11a8b2"/>
            <path d="M1051.74,740.46h0m0,85.88V740.46h0L976.62,783.4l75.12,42.93" style="fill: #15b6b3"/>
            <polyline points="1051.74 396.96 1126.86 354.02 1051.74 311.08 1051.74 396.95 1051.74 396.96" style="fill: #f6556b"/>
            <polyline points="600.99 53.45 600.99 -32.42 525.87 10.52 600.99 53.45" style="fill: #0baaac"/>
            <polyline points="150.25 225.2 225.37 182.27 150.25 139.33 150.25 225.2" style="fill: #a01abb"/>
            <polyline points="150.25 568.71 225.37 525.77 150.25 482.83 150.25 568.71 150.25 568.71" style="fill: #c8ad27"/>
            <polyline points="150.25 740.46 225.37 697.52 150.25 654.58 150.25 740.46 150.25 740.46" style="fill: #c87627"/>
            <polyline points="150.25 396.96 225.37 354.02 150.25 311.08 150.25 396.95 150.25 396.96" style="fill: #abb615"/>
            <polyline points="751.24 826.33 751.24 740.46 751.24 740.46 676.11 783.4 751.24 826.33" style="fill: #d68c35"/>
            <path d="M450.74,568.7h0m0,85.88V568.71h0l-75.12,42.94,75.12,42.94" style="fill: #e0a23f"/>
            <polyline points="1201.65 225.01 1201.65 139.52 1126.86 182.27 1201.65 225.01" style="fill: #0b37ac"/>
            <polyline points="1201.65 396.76 1201.65 311.27 1126.86 354.02 1201.65 396.76" style="fill: #0e73af"/>
            <polyline points="0 654.58 75.12 611.64 0 568.71 0 654.58" style="fill: #3a9200"/>
            <polyline points="901.49 826.33 976.62 783.4 901.49 740.46 901.49 826.33 901.49 826.33" style="fill: #1db9be"/>
            <polyline points="300.49 139.33 375.62 96.39 300.49 53.45 300.49 139.33" style="fill: #005d73"/>
            <polyline points="0 826.33 75.12 783.4 0 740.46 0 826.33 0 826.33" style="fill: #2c2ccd"/>
            <polyline points="1201.65 568.51 1201.65 483.02 1126.86 525.77 1201.65 568.51" style="fill: #226dc3"/>
            <polyline points="751.24 654.58 751.24 568.71 751.24 568.71 676.11 611.64 751.24 654.58" style="fill: #e46043"/>
            <polyline points="901.49 654.58 976.62 611.64 901.49 568.71 901.49 654.58" style="fill: #d83769"/>
            <polyline points="0 139.33 75.12 96.39 0 53.45 0 139.33" style="fill: #005073"/>
            <path d="M601,569l.28-.16-.28-.16V569m.57,85.22,74.55-42.61L601.57,569v85.22m-.57.33.28-.16-.28-.16v.33" style="fill: #da8039"/>
            <polyline points="1201.65 53.26 1201.65 -32.23 1126.86 10.52 1201.65 53.26" style="fill: #005f48"/>
            <polyline points="0 482.83 75.12 439.89 0 396.95 0 482.83" style="fill: #009072"/>
            <polyline points="300.49 654.58 375.62 611.64 300.49 568.71 300.49 654.58" style="fill: #e1a640"/>
            <polyline points="901.49 482.83 976.62 439.89 901.49 396.95 901.49 482.83" style="fill: #d63552"/>
            <polyline points="0 311.08 75.12 268.14 0 225.2 0 311.07 0 311.08" style="fill: #006570"/>
            <polyline points="600.99 826.33 676.11 783.4 600.99 740.46 600.99 826.33 600.99 826.33" style="fill: #dc7d3b"/>
            <polyline points="300.49 826.33 375.62 783.4 300.49 740.46 300.49 826.33 300.49 826.33" style="fill: #c54c24"/>
            <polyline points="600.99 482.83 676.11 439.89 600.99 396.95 600.99 482.83" style="fill: #e3b542"/>
            <polyline points="751.24 311.07 751.24 225.21 751.24 225.2 676.11 268.14 751.24 311.07" style="fill: #c45923"/>
            <polyline points="1201.65 740.27 1201.65 654.77 1126.86 697.52 1201.65 740.27" style="fill: #008ca1"/>
            <polyline points="1126.86 869.27 1126.86 869.27 1201.65 826.52 1201.65 826.14 1126.86 783.4 1126.86 869.27" style="fill: #099aaa"/>
            <polyline points="1201.65 826.14 1201.65 740.65 1126.86 783.4 1201.65 826.14" style="fill: #008ca1"/>
            <polyline points="1126.86 869.27 1126.86 783.4 1051.74 826.33 1126.86 869.27" style="fill: #009099"/>
            <polyline points="1051.74 826.33 1051.74 826.33 1126.86 783.4 1051.74 740.46 1051.74 826.33 1051.74 826.33" style="fill: #039ca4"/>
            <polyline points="1126.86 783.4 1126.86 783.4 1126.86 697.52 1051.74 740.46 1126.86 783.4" style="fill: #00929f"/>
            <polyline points="1126.86 783.4 1126.86 783.4 1201.65 740.65 1201.65 740.27 1126.86 697.52 1126.86 783.4" style="fill: #0893a9"/>
            <polyline points="1126.86 697.52 1126.86 697.52 1201.65 654.77 1201.65 654.39 1126.86 611.64 1126.86 697.52" style="fill: #1693b7"/>
            <polyline points="1201.65 654.39 1201.65 568.89 1126.86 611.64 1201.65 654.39" style="fill: #0e7caf"/>
            <polyline points="1126.86 697.52 1126.86 611.64 1051.74 654.58 1126.86 697.52" style="fill: #1faac0"/>
            <polyline points="1051.74 654.58 1051.74 654.58 1126.86 611.64 1051.74 568.71 1051.74 654.58 1051.74 654.58" style="fill: #5698f7"/>
            <polyline points="1126.86 611.64 1126.86 611.64 1126.86 525.77 1051.74 568.71 1126.86 611.64" style="fill: #ff6985"/>
            <polyline points="1126.86 611.64 1126.86 611.64 1201.65 568.89 1201.65 568.51 1126.86 525.77 1126.86 611.64" style="fill: #4273e3"/>
            <polyline points="1126.86 525.77 1126.86 525.77 1201.65 483.02 1201.65 482.64 1126.86 439.89 1126.86 525.77" style="fill: #7954f5"/>
            <polyline points="1201.65 482.64 1201.65 397.14 1126.86 439.89 1201.65 482.64" style="fill: #2167c2"/>
            <polyline points="1126.86 525.77 1126.86 439.89 1051.74 482.83 1126.86 525.77" style="fill: #ff6c71"/>
            <polyline points="1051.74 482.83 1051.74 482.83 1126.86 439.89 1051.74 396.96 1051.74 482.83" style="fill: #ff7370"/>
            <polyline points="1126.86 439.89 1126.86 439.89 1126.86 354.02 1051.74 396.96 1126.86 439.89" style="fill: #f55464"/>
            <polyline points="1126.86 439.89 1126.86 439.89 1201.65 397.14 1201.65 396.76 1126.86 354.02 1126.86 439.89" style="fill: #c842e3"/>
            <polyline points="1126.86 354.02 1126.86 354.02 1201.65 311.27 1201.65 310.89 1126.86 268.14 1126.86 354.02" style="fill: #2a70cb"/>
            <polyline points="1201.65 310.89 1201.65 225.39 1126.86 268.14 1201.65 310.89" style="fill: #00488f"/>
            <polyline points="1126.86 354.02 1126.86 268.14 1051.74 311.08 1126.86 354.02" style="fill: #9141e2"/>
            <polyline points="1051.74 311.08 1051.74 311.08 1126.86 268.14 1051.74 225.21 1051.74 311.07 1051.74 311.08" style="fill: #3b59dc"/>
            <polyline points="1126.86 268.14 1126.86 268.14 1126.86 182.27 1051.74 225.2 1051.74 225.21 1126.86 268.14" style="fill: #075ca8"/>
            <polyline points="1126.86 268.14 1126.86 268.14 1201.65 225.39 1201.65 225.01 1126.86 182.27 1126.86 268.14" style="fill: #005686"/>
            <polyline points="1126.86 182.27 1126.86 182.27 1201.65 139.52 1201.65 139.14 1126.86 96.39 1126.86 182.27" style="fill: #005b5f"/>
            <polyline points="1201.65 139.14 1201.65 53.64 1126.86 96.39 1201.65 139.14" style="fill: #00515b"/>
            <polyline points="1126.86 182.27 1126.86 96.39 1051.74 139.33 1126.86 182.27" style="fill: #005961"/>
            <polyline points="1051.74 139.33 1051.74 139.33 1126.86 96.39 1051.74 53.45 1051.74 139.33" style="fill: #006658"/>
            <polyline points="1126.86 96.39 1126.86 96.39 1126.86 10.52 1051.74 53.45 1126.86 96.39" style="fill: #006854"/>
            <polyline points="1126.86 96.39 1126.86 96.39 1201.65 53.64 1201.65 53.26 1126.86 10.52 1126.86 96.39" style="fill: #006153"/>
            <polyline points="1126.86 10.52 1126.86 10.52 1201.65 -32.23 1201.65 -32.61 1126.86 -75.35 1126.86 10.52" style="fill: #00694d"/>
            <polyline points="1126.86 10.52 1126.86 -75.35 1051.74 -32.42 1126.86 10.52" style="fill: #00684e"/>
            <polyline points="976.62 869.27 976.62 869.27 976.62 783.4 901.49 826.33 976.62 869.27" style="fill: #09a3aa"/>
            <polyline points="976.62 869.27 976.62 869.27 1051.74 826.33 976.62 783.4 976.62 869.27" style="fill: #09a5aa"/>
            <polyline points="676.11 869.27 676.11 869.27 676.11 783.4 600.99 826.33 676.11 869.27" style="fill: #d56f34"/>
            <polyline points="676.11 869.27 676.11 869.27 751.24 826.33 676.11 783.4 676.11 869.27" style="fill: #d47f33"/>
            <polyline points="375.62 869.27 375.62 869.27 375.62 783.4 300.49 826.33 375.62 869.27" style="fill: #b93718"/>
            <polyline points="375.62 869.27 375.62 869.27 450.74 826.33 375.62 783.4 375.62 869.27" style="fill: #ca5a29"/>
            <polyline points="75.12 869.27 75.12 869.27 75.12 783.4 0 826.33 75.12 869.27" style="fill: #8c007c"/>
            <polyline points="75.12 869.27 75.12 869.27 150.25 826.33 75.12 783.4 75.12 869.27" style="fill: #b4132b"/>
            <polyline points="976.62 783.4 976.62 783.4 1051.74 740.46 976.62 697.52 976.62 783.4" style="fill: #0ea9af"/>
            <polyline points="1051.74 740.46 1051.74 740.46 1051.74 654.58 1051.74 654.58 976.62 697.52 1051.74 740.46" style="fill: #1aabbb"/>
            <polyline points="976.62 783.4 976.62 697.52 901.49 740.46 976.62 783.4" style="fill: #0aa6ab"/>
            <polyline points="901.49 740.46 901.49 740.46 976.62 697.52 901.49 654.58 901.49 740.46" style="fill: #1792b8"/>
            <polyline points="976.62 697.52 976.62 697.52 976.62 611.64 901.49 654.58 901.49 654.58 976.62 697.52" style="fill: #c639da"/>
            <polyline points="976.62 697.52 976.62 697.52 1051.74 654.58 976.62 611.64 976.62 697.52" style="fill: #4b8dec"/>
            <polyline points="676.11 783.4 676.11 783.4 751.24 740.46 676.11 697.52 676.11 783.4" style="fill: #d67a35"/>
            <polyline points="751.24 740.46 751.24 740.46 751.24 654.58 751.24 654.58 676.11 697.52 751.24 740.46" style="fill: #d36932"/>
            <polyline points="676.11 783.4 676.11 697.52 600.99 740.46 676.11 783.4" style="fill: #dc7c3b"/>
            <polyline points="600.99 740.46 600.99 740.46 676.11 697.52 600.99 654.58 600.99 740.46" style="fill: #d77536"/>
            <polyline points="676.11 697.52 676.11 697.52 676.11 611.64 601.57 654.25 601.57 654.58 601.57 654.58 601.28 654.42 600.99 654.58 600.99 654.58 676.11 697.52" style="fill: #d77036"/>
            <polyline points="676.11 697.52 676.11 697.52 751.24 654.58 676.11 611.64 676.11 697.52" style="fill: #e57044"/>
            <polyline points="375.62 783.4 375.62 783.4 450.74 740.46 375.62 697.52 375.62 783.4" style="fill: #d98638"/>
            <polyline points="450.74 740.46 450.74 740.46 450.74 654.58 450.74 654.58 375.62 697.52 450.74 740.46" style="fill: #dd953c"/>
            <polyline points="375.62 783.4 375.62 697.52 300.49 740.46 375.62 783.4" style="fill: #d06b2f"/>
            <polyline points="300.49 740.46 300.49 740.46 375.62 697.52 300.49 654.58 300.49 740.46" style="fill: #d78736"/>
            <polyline points="375.62 697.52 375.62 697.52 375.62 611.64 300.49 654.58 300.49 654.58 375.62 697.52" style="fill: #db973a"/>
            <polyline points="375.62 697.52 375.62 697.52 450.74 654.58 375.62 611.64 375.62 697.52" style="fill: #e19f40"/>
            <polyline points="75.12 783.4 75.12 783.4 150.25 740.46 75.12 697.52 75.12 783.4" style="fill: #b04d0f"/>
            <polyline points="150.25 740.46 150.25 740.46 150.25 654.58 150.25 654.58 75.12 697.52 150.25 740.46" style="fill: #bf871e"/>
            <polyline points="75.12 783.4 75.12 697.52 0 740.46 75.12 783.4" style="fill: #765000"/>
            <polyline points="0 740.46 0 740.46 75.12 697.52 0 654.58 0 740.46" style="fill: #009800"/>
            <polyline points="75.12 697.52 75.12 697.52 75.12 611.64 0 654.58 0 654.58 0 654.58 0 654.58 75.12 697.52" style="fill: #7c8000"/>
            <polyline points="75.12 697.52 75.12 697.52 150.25 654.58 75.12 611.64 75.12 697.52" style="fill: #bb961a"/>
            <polyline points="976.62 611.64 976.62 611.64 1051.74 568.71 976.62 525.77 976.62 611.64" style="fill: #ff6680"/>
            <polyline points="1051.74 568.71 1051.74 568.71 1051.74 482.83 976.62 525.77 1051.74 568.71" style="fill: #ff6f83"/>
            <polyline points="976.62 611.64 976.62 525.77 901.49 568.71 976.62 611.64" style="fill: #ea496d"/>
            <polyline points="901.49 568.71 901.49 568.71 976.62 525.77 901.49 482.83 901.49 568.71" style="fill: #dd3c57"/>
            <polyline points="976.62 525.77 976.62 525.77 976.62 439.89 901.49 482.83 901.49 482.83 976.62 525.77" style="fill: #f04f69"/>
            <polyline points="976.62 525.77 976.62 525.77 1051.74 482.83 976.62 439.89 976.62 525.77" style="fill: #f8576e"/>
            <polyline points="676.11 611.64 676.11 611.64 751.24 568.71 676.11 525.77 676.11 611.64" style="fill: #ec684b"/>
            <polyline points="751.24 568.71 751.24 568.71 751.24 482.83 676.11 525.77 751.24 568.71" style="fill: #e35042"/>
            <polyline points="676.11 611.64 676.11 525.77 600.99 568.71 601.28 568.87 601.57 568.71 601.57 569.03 676.11 611.64" style="fill: #de8e3d"/>
            <polyline points="600.99 568.71 600.99 568.71 676.11 525.77 600.99 482.83 600.99 568.71" style="fill: #e2a141"/>
            <polyline points="676.11 525.77 676.11 525.77 676.11 439.89 600.99 482.83 600.99 482.83 676.11 525.77" style="fill: #e5a944"/>
            <polyline points="676.11 525.77 676.11 525.77 751.24 482.83 676.11 439.89 676.11 525.77" style="fill: #f27a51"/>
            <polyline points="375.62 611.64 375.62 611.64 450.74 568.71 375.62 525.77 375.62 611.64" style="fill: #ddae3c"/>
            <polyline points="450.74 568.71 450.74 568.71 450.74 482.83 375.62 525.77 450.74 568.71" style="fill: #dab839"/>
            <polyline points="375.62 611.64 375.62 525.77 300.49 568.71 375.62 611.64" style="fill: #dab639"/>
            <polyline points="300.49 568.71 300.49 568.71 375.62 525.77 300.49 482.83 300.49 568.71" style="fill: #e0c03f"/>
            <polyline points="375.62 525.77 375.62 525.77 375.62 439.89 300.49 482.83 300.49 482.83 375.62 525.77" style="fill: #d6c035"/>
            <polyline points="375.62 525.77 375.62 525.77 450.74 482.83 375.62 439.89 375.62 525.77" style="fill: #d3b632"/>
            <polyline points="75.12 611.64 75.12 611.64 150.25 568.71 75.12 525.77 75.12 611.64" style="fill: #b49613"/>
            <polyline points="150.25 568.71 150.25 568.71 150.25 482.83 75.12 525.77 150.25 568.71" style="fill: #b9a618"/>
            <polyline points="75.12 611.64 75.12 525.77 0 568.71 75.12 611.64" style="fill: #7e9600"/>
            <polyline points="0 568.71 0 568.71 75.12 525.77 0 482.83 0 568.71" style="fill: #009161"/>
            <polyline points="75.12 525.77 75.12 525.77 75.12 439.89 0 482.83 0 482.83 0 482.83 0 482.83 75.12 525.77" style="fill: #07a867"/>
            <polyline points="75.12 525.77 75.12 525.77 150.25 482.83 75.12 439.89 75.12 525.77" style="fill: #7e9d00"/>
            <polyline points="976.62 439.89 976.62 439.89 1051.74 396.95 976.62 354.02 976.62 439.89" style="fill: #ed4c6a"/>
            <polyline points="1051.74 396.95 1051.74 396.95 1051.74 311.08 1051.74 311.07 976.62 354.02 1051.74 396.95" style="fill: #e84775"/>
            <polyline points="976.62 439.89 976.62 354.02 901.49 396.95 976.62 439.89" style="fill: #df3e5d"/>
            <polyline points="901.49 396.95 901.49 396.95 976.62 354.02 901.49 311.08 901.49 396.95" style="fill: #d43355"/>
            <polyline points="976.62 354.02 976.62 354.02 976.62 268.14 901.49 311.08 976.62 354.02" style="fill: #d13061"/>
            <polyline points="976.62 354.02 976.62 354.02 1051.74 311.07 976.62 268.14 976.62 354.02" style="fill: #d5347f"/>
            <polyline points="676.11 439.89 676.11 439.89 751.24 396.95 676.11 354.02 676.11 439.89" style="fill: #ee7c4d"/>
            <polyline points="751.24 396.95 751.24 396.95 751.24 311.08 751.24 311.07 676.11 354.02 751.24 396.95" style="fill: #d95d38"/>
            <polyline points="676.11 439.89 676.11 354.02 600.99 396.95 676.11 439.89" style="fill: #e29a41"/>
            <polyline points="600.99 396.95 600.99 396.95 676.11 354.02 600.99 311.08 600.99 396.95" style="fill: #dab639"/>
            <polyline points="676.11 354.02 676.11 354.02 676.11 268.14 600.99 311.08 676.11 354.02" style="fill: #c2af21"/>
            <polyline points="676.11 354.02 676.11 354.02 751.24 311.07 676.11 268.14 676.11 354.02" style="fill: #d98038"/>
            <polyline points="375.62 439.89 375.62 439.89 450.74 396.95 375.62 354.02 375.62 439.89" style="fill: #d3c732"/>
            <polyline points="450.74 396.95 450.74 396.95 450.74 311.08 450.74 311.07 375.62 354.02 450.74 396.95" style="fill: #c3c726"/>
            <polyline points="375.62 439.89 375.62 354.02 300.49 396.95 375.62 439.89" style="fill: #cec32d"/>
            <polyline points="300.49 396.95 300.49 396.95 375.62 354.02 300.49 311.08 300.49 396.95" style="fill: #c6b925"/>
            <polyline points="375.62 354.02 375.62 354.02 375.62 268.14 300.49 311.08 375.62 354.02" style="fill: #a7b615"/>
            <polyline points="375.62 354.02 375.62 354.02 450.74 311.07 375.62 268.14 375.62 354.02" style="fill: #afc01f"/>
            <polyline points="75.12 439.89 75.12 439.89 150.25 396.95 75.12 354.02 75.12 439.89" style="fill: #56bf1e"/>
            <polyline points="150.25 396.95 150.25 396.95 150.25 311.08 150.25 311.07 75.12 354.02 150.25 396.95" style="fill: #4dc423"/>
            <polyline points="75.12 439.89 75.12 354.02 0 396.95 75.12 439.89" style="fill: #02a378"/>
            <polyline points="0 396.95 0 396.95 75.12 354.02 0 311.08 0 396.95" style="fill: #009274"/>
            <polyline points="75.12 354.02 75.12 354.02 75.12 268.14 0 311.08 75.12 354.02" style="fill: #009690"/>
            <polyline points="75.12 354.02 75.12 354.02 150.25 311.07 75.12 268.14 75.12 354.02" style="fill: #009b82"/>
            <polyline points="976.62 268.14 976.62 268.14 1051.74 225.2 976.62 182.27 976.62 268.14" style="fill: #00728c"/>
            <polyline points="1051.74 225.2 1051.74 225.2 1051.74 139.33 976.62 182.27 1051.74 225.2" style="fill: #006f68"/>
            <polyline points="976.62 268.14 976.62 182.27 901.49 225.2 976.62 268.14" style="fill: #1768b8"/>
            <polyline points="901.49 225.2 901.49 225.2 976.62 182.27 901.49 139.33 901.49 225.2" style="fill: #00785a"/>
            <polyline points="976.62 182.27 976.62 182.27 976.62 96.39 901.49 139.33 976.62 182.27" style="fill: #007859"/>
            <polyline points="976.62 182.27 976.62 182.27 1051.74 139.33 976.62 96.39 976.62 182.27" style="fill: #00705f"/>
            <polyline points="676.11 268.14 676.11 268.14 751.24 225.2 676.11 182.27 676.11 268.14" style="fill: #0dae35"/>
            <polyline points="751.24 225.2 751.24 225.2 751.24 139.33 676.11 182.27 751.24 225.2" style="fill: #01a273"/>
            <polyline points="676.11 268.14 676.11 182.27 600.99 225.2 676.11 268.14" style="fill: #54c726"/>
            <polyline points="600.99 225.2 600.99 225.2 676.11 182.27 600.99 139.33 600.99 225.2" style="fill: #2dce86"/>
            <polyline points="676.11 182.27 676.11 182.27 676.11 96.39 600.99 139.33 676.11 182.27" style="fill: #10b196"/>
            <polyline points="676.11 182.27 676.11 182.27 751.24 139.33 676.11 96.39 676.11 182.27" style="fill: #02a38d"/>
            <polyline points="375.62 268.14 375.62 268.14 450.74 225.2 375.62 182.27 375.62 268.14" style="fill: #7ac423"/>
            <polyline points="450.74 225.2 450.74 225.2 450.74 139.33 375.62 182.27 450.74 225.2" style="fill: #2acb62"/>
            <polyline points="375.62 268.14 375.62 182.27 300.49 225.2 375.62 268.14" style="fill: #20c13d"/>
            <polyline points="300.49 225.2 300.49 225.2 375.62 182.27 300.49 139.33 300.49 225.2" style="fill: #13b453"/>
            <polyline points="375.62 182.27 375.62 182.27 375.62 96.39 300.49 139.33 375.62 182.27" style="fill: #008671"/>
            <polyline points="375.62 182.27 375.62 182.27 450.74 139.33 375.62 96.39 375.62 182.27" style="fill: #01a27d"/>
            <polyline points="150.25 139.33 150.25 53.45 75.12 96.39 150.25 139.33" style="fill: #5e0dae"/>
            <polyline points="150.25 53.45 225.37 10.52 150.25 -32.42 150.25 53.45" style="fill: #5b00a1"/>
            <polyline points="75.12 268.14 75.12 268.14 150.25 225.2 75.12 182.27 75.12 268.14" style="fill: #005892"/>
            <polyline points="150.25 225.2 150.25 225.2 150.25 139.33 75.12 182.27 150.25 225.2" style="fill: #3423c4"/>
            <polyline points="75.12 268.14 75.12 182.27 0 225.2 75.12 268.14" style="fill: #00547e"/>
            <polyline points="0 225.2 0 225.2 75.12 182.27 0 139.33 0 225.2" style="fill: #005974"/>
            <polyline points="75.12 182.27 75.12 182.27 75.12 96.39 0 139.33 75.12 182.27" style="fill: #005172"/>
            <polyline points="75.12 182.27 75.12 182.27 150.25 139.33 75.12 96.39 75.12 182.27" style="fill: #6317b8"/>
            <polyline points="976.62 96.39 976.62 96.39 1051.74 53.45 976.62 10.52 976.62 96.39" style="fill: #007c5e"/>
            <polyline points="1051.74 53.45 1051.74 53.45 1051.74 -32.42 976.62 10.52 1051.74 53.45" style="fill: #007054"/>
            <polyline points="976.62 96.39 976.62 10.52 901.49 53.45 976.62 96.39" style="fill: #007f58"/>
            <polyline points="901.49 53.45 901.49 53.45 976.62 10.52 901.49 -32.42 901.49 53.45" style="fill: #007b5a"/>
            <polyline points="976.62 10.52 976.62 10.52 976.62 -75.35 901.49 -32.42 976.62 10.52" style="fill: #007f60"/>
            <polyline points="976.62 10.52 976.62 10.52 1051.74 -32.42 976.62 -75.35 976.62 10.52" style="fill: #00785d"/>
            <polyline points="676.11 96.39 676.11 96.39 751.24 53.45 676.11 10.52 676.11 96.39" style="fill: #00a196"/>
            <polyline points="751.24 53.45 751.24 53.45 751.24 -32.42 676.11 10.52 751.24 53.45" style="fill: #00998c"/>
            <polyline points="676.11 96.39 676.11 10.52 600.99 53.45 676.11 96.39" style="fill: #05a6a1"/>
            <polyline points="600.99 53.45 600.99 53.45 676.11 10.52 600.99 -32.42 600.99 53.45" style="fill: #07a8a8"/>
            <polyline points="676.11 10.52 676.11 10.52 676.11 -75.35 600.99 -32.42 676.11 10.52" style="fill: #05a4a6"/>
            <polyline points="676.11 10.52 676.11 10.52 751.24 -32.42 676.11 -75.35 676.11 10.52" style="fill: #009e96"/>
            <polyline points="375.62 96.39 375.62 96.39 450.74 53.45 375.62 10.52 375.62 96.39" style="fill: #009287"/>
            <polyline points="450.74 53.45 450.74 53.45 450.74 -32.42 375.62 10.52 450.74 53.45" style="fill: #00838d"/>
            <polyline points="375.62 96.39 375.62 10.52 300.49 53.45 375.62 96.39" style="fill: #00697b"/>
            <polyline points="300.49 53.45 300.49 53.45 375.62 10.52 300.49 -32.42 300.49 53.45" style="fill: #00557b"/>
            <polyline points="375.62 10.52 375.62 10.52 375.62 -75.35 300.49 -32.42 375.62 10.52" style="fill: #005680"/>
            <polyline points="375.62 10.52 375.62 10.52 450.74 -32.42 375.62 -75.35 375.62 10.52" style="fill: #006787"/>
            <polyline points="75.12 96.39 75.12 96.39 150.25 53.45 75.12 10.52 75.12 96.39" style="fill: #003090"/>
            <polyline points="150.25 53.45 150.25 53.45 150.25 -32.42 75.12 10.52 150.25 53.45" style="fill: #091faa"/>
            <polyline points="75.12 96.39 75.12 10.52 0 53.45 75.12 96.39" style="fill: #004870"/>
            <polyline points="0 53.45 0 53.45 75.12 10.52 0 -32.42 0 53.45" style="fill: #00506a"/>
            <polyline points="75.12 10.52 75.12 10.52 75.12 -75.35 0 -32.42 75.12 10.52" style="fill: #004b6a"/>
            <polyline points="75.12 10.52 75.12 10.52 150.25 -32.42 75.12 -75.35 75.12 10.52" style="fill: #00264c"/>
            <polyline points="826.36 869.27 826.36 869.27 901.49 826.33 826.36 783.4 826.36 869.27" style="fill: #14b562"/>
            <polyline points="901.49 826.33 901.49 826.33 901.49 826.33 901.49 740.46 826.36 783.4 901.49 826.33" style="fill: #12b38a"/>
            <polyline points="826.36 869.27 826.36 783.4 751.24 826.33 826.36 869.27" style="fill: #62ad0c"/>
            <polyline points="751.24 740.46 751.24 740.46 751.24 740.46 751.24 740.46" style="fill: #6697ff"/>
            <polyline points="751.24 826.33 751.24 826.33 826.36 783.4 751.24 740.46 751.24 826.33 751.24 826.33" style="fill: #ba8919"/>
            <polyline points="826.36 783.4 826.36 783.4 826.36 697.52 751.24 740.46 751.24 740.46 826.36 783.4" style="fill: #bc761b"/>
            <polyline points="826.36 783.4 826.36 783.4 901.49 740.46 826.36 697.52 826.36 783.4" style="fill: #32bd1c"/>
            <polyline points="525.87 869.27 525.87 869.27 600.99 826.33 525.87 783.4 525.87 869.27" style="fill: #d56934"/>
            <polyline points="600.99 826.33 600.99 826.33 600.99 826.33 600.99 740.46 525.87 783.4 600.99 826.33" style="fill: #e98648"/>
            <polyline points="525.87 869.27 525.87 783.4 450.74 826.33 525.87 869.27" style="fill: #c84f27"/>
            <polyline points="450.74 826.33 450.74 826.33 525.87 783.4 450.74 740.46 450.74 826.33 450.74 826.33" style="fill: #d36432"/>
            <polyline points="525.87 783.4 525.87 783.4 525.87 697.52 450.74 740.46 525.87 783.4" style="fill: #d87537"/>
            <polyline points="525.87 783.4 525.87 783.4 600.99 740.46 525.87 697.52 525.87 783.4" style="fill: #da7f39"/>
            <polyline points="225.37 869.27 225.37 869.27 300.49 826.33 225.37 783.4 225.37 869.27" style="fill: #b92b18"/>
            <polyline points="300.49 826.33 300.49 826.33 300.49 826.33 300.49 740.46 225.37 783.4 300.49 826.33" style="fill: #cd602c"/>
            <polyline points="225.37 869.27 225.37 783.4 150.25 826.33 225.37 869.27" style="fill: #ba2119"/>
            <polyline points="150.25 826.33 150.25 826.33 225.37 783.4 150.25 740.46 150.25 826.33 150.25 826.33" style="fill: #c0311f"/>
            <polyline points="225.37 783.4 225.37 783.4 225.37 697.52 150.25 740.46 225.37 783.4" style="fill: #cd602c"/>
            <polyline points="225.37 783.4 225.37 783.4 300.49 740.46 225.37 697.52 225.37 783.4" style="fill: #cd6c2c"/>
            <polyline points="826.36 697.52 826.36 697.52 901.49 654.58 826.36 611.64 826.36 697.52" style="fill: #dc3b4d"/>
            <polyline points="901.49 654.58 901.49 654.58 901.49 654.58 901.49 568.71 826.36 611.64 901.49 654.58" style="fill: #d53457"/>
            <polyline points="826.36 697.52 826.36 611.64 751.24 654.58 826.36 697.52" style="fill: #de453d"/>
            <polyline points="751.24 654.58 751.24 654.58 826.36 611.64 751.24 568.71 751.24 654.58 751.24 654.58" style="fill: #de493d"/>
            <polyline points="751.24 568.71 751.24 568.71 751.24 568.71 751.24 568.71" style="fill: #6697ff"/>
            <polyline points="826.36 611.64 826.36 611.64 826.36 525.77 751.24 568.71 751.24 568.71 826.36 611.64" style="fill: #d93845"/>
            <polyline points="826.36 611.64 826.36 611.64 901.49 568.71 826.36 525.77 826.36 611.64" style="fill: #d4334e"/>
            <polyline points="525.87 697.52 525.87 697.52 600.99 654.58 525.87 611.64 525.87 697.52" style="fill: #da8139"/>
            <polyline points="600.99 654.26 600.99 569.03 526.44 611.64 600.99 654.26" style="fill: #e98648"/>
            <polyline points="601.28 654.42 601.57 654.25 601.57 569.03 601.28 568.87 600.99 569.03 600.99 654.26 601.28 654.42" style="fill: #e28f41"/>
            <polyline points="601.57 654.58 601.57 654.58 601.57 654.25 601.28 654.42 601.57 654.58" style="fill: #de7f3d"/>
            <polyline points="601.57 569.03 601.57 568.71 601.28 568.87 601.57 569.03" style="fill: #e59a44"/>
            <polyline points="525.87 697.52 525.87 611.64 450.74 654.58 525.87 697.52" style="fill: #dd8c3c"/>
            <polyline points="450.74 654.58 450.74 654.58 525.87 611.64 450.74 568.71 450.74 654.58 450.74 654.58" style="fill: #df923e"/>
            <polyline points="525.87 611.64 525.87 611.64 525.87 525.77 450.74 568.71 525.87 611.64" style="fill: #dea33d"/>
            <polyline points="525.87 611.64 525.87 611.64 600.99 568.71 525.87 525.77 525.87 611.64" style="fill: #de983d"/>
            <polyline points="225.37 697.52 225.37 697.52 300.49 654.58 225.37 611.64 225.37 697.52" style="fill: #e0ba3f"/>
            <polyline points="300.49 654.58 300.49 654.58 300.49 654.58 300.49 568.71 225.37 611.64 300.49 654.58" style="fill: #e4c543"/>
            <polyline points="225.37 697.52 225.37 611.64 150.25 654.58 225.37 697.52" style="fill: #e3c342"/>
            <polyline points="150.25 654.58 150.25 654.58 225.37 611.64 150.25 568.71 150.25 654.58 150.25 654.58" style="fill: #debf3d"/>
            <polyline points="225.37 611.64 225.37 611.64 225.37 525.77 150.25 568.71 225.37 611.64" style="fill: #d2b731"/>
            <polyline points="225.37 611.64 225.37 611.64 300.49 568.71 225.37 525.77 225.37 611.64" style="fill: #d9be38"/>
            <polyline points="826.36 525.77 826.36 525.77 901.49 482.83 826.36 439.89 826.36 525.77" style="fill: #ba1933"/>
            <polyline points="901.49 482.83 901.49 482.83 901.49 396.95 826.36 439.89 901.49 482.83" style="fill: #cc2b53"/>
            <polyline points="826.36 525.77 826.36 439.89 751.24 482.83 826.36 525.77" style="fill: #d73647"/>
            <polyline points="751.24 482.83 751.24 482.83 826.36 439.89 751.24 396.96 751.24 482.83" style="fill: #ef4e58"/>
            <polyline points="751.24 396.96 751.24 396.96 751.24 396.95 751.24 396.96" style="fill: #6697ff"/>
            <polyline points="826.36 439.89 826.36 439.89 826.36 354.02 751.24 396.96 751.24 396.96 826.36 439.89" style="fill: #e44353"/>
            <polyline points="826.36 439.89 826.36 439.89 901.49 396.95 826.36 354.02 826.36 439.89" style="fill: #c82745"/>
            <polyline points="525.87 525.77 525.87 525.77 600.99 482.83 525.87 439.89 525.87 525.77" style="fill: #dfc73e"/>
            <polyline points="600.99 482.83 600.99 482.83 600.99 396.95 525.87 439.89 600.99 482.83" style="fill: #dbc53a"/>
            <polyline points="525.87 525.77 525.87 439.89 450.74 482.83 525.87 525.77" style="fill: #e3cb42"/>
            <polyline points="450.74 482.83 450.74 482.83 525.87 439.89 450.74 396.96 450.74 482.83" style="fill: #d9cb38"/>
            <polyline points="525.87 439.89 525.87 439.89 525.87 354.02 450.74 396.96 525.87 439.89" style="fill: #e0d43f"/>
            <polyline points="525.87 439.89 525.87 439.89 600.99 396.95 525.87 354.02 525.87 439.89" style="fill: #d4cd33"/>
            <polyline points="225.37 525.77 225.37 525.77 300.49 482.83 225.37 439.89 225.37 525.77" style="fill: #d2be31"/>
            <polyline points="300.49 482.83 300.49 482.83 300.49 396.95 225.37 439.89 300.49 482.83" style="fill: #cbba2a"/>
            <polyline points="225.37 525.77 225.37 439.89 150.25 482.83 225.37 525.77" style="fill: #ccba2b"/>
            <polyline points="150.25 482.83 150.25 482.83 225.37 439.89 150.25 396.96 150.25 482.83" style="fill: #c0b71f"/>
            <polyline points="225.37 439.89 225.37 439.89 225.37 354.02 150.25 396.96 225.37 439.89" style="fill: #bdb21c"/>
            <polyline points="225.37 439.89 225.37 439.89 300.49 396.95 225.37 354.02 225.37 439.89" style="fill: #c8bd27"/>
            <polyline points="826.36 354.02 826.36 354.02 901.49 311.08 826.36 268.14 826.36 354.02" style="fill: #c92841"/>
            <polyline points="901.49 311.08 901.49 311.08 901.49 311.07 901.49 225.2 826.36 268.14 901.49 311.08" style="fill: #c82727"/>
            <polyline points="826.36 354.02 826.36 268.14 751.24 311.08 826.36 354.02" style="fill: #ce2d35"/>
            <polyline points="751.24 225.21 751.24 225.2 751.24 225.2 751.24 225.21" style="fill: #6697ff"/>
            <polyline points="751.24 311.08 751.24 311.08 826.36 268.14 751.24 225.21 751.24 311.07 751.24 311.08" style="fill: #cd3b2c"/>
            <polyline points="826.36 268.14 826.36 268.14 826.36 182.27 751.24 225.2 751.24 225.21 826.36 268.14" style="fill: #b43513"/>
            <polyline points="826.36 268.14 826.36 268.14 901.49 225.2 826.36 182.27 826.36 268.14" style="fill: #297a00"/>
            <polyline points="525.87 354.02 525.87 354.02 600.99 311.08 525.87 268.14 525.87 354.02" style="fill: #94d635"/>
            <polyline points="600.99 311.08 600.99 311.08 600.99 311.07 600.99 225.2 525.87 268.14 600.99 311.08" style="fill: #5de443"/>
            <polyline points="525.87 354.02 525.87 268.14 450.74 311.08 525.87 354.02" style="fill: #96cc2b"/>
            <polyline points="450.74 311.08 450.74 311.08 525.87 268.14 450.74 225.21 450.74 311.07 450.74 311.08" style="fill: #57dd3c"/>
            <polyline points="525.87 268.14 525.87 268.14 525.87 182.27 450.74 225.2 450.74 225.21 525.87 268.14" style="fill: #2ecf80"/>
            <polyline points="525.87 268.14 525.87 268.14 600.99 225.2 525.87 182.27 525.87 268.14" style="fill: #30d18a"/>
            <polyline points="225.37 354.02 225.37 354.02 300.49 311.08 225.37 268.14 225.37 354.02" style="fill: #b8ab17"/>
            <polyline points="300.49 311.08 300.49 311.08 300.49 311.07 300.49 225.2 225.37 268.14 300.49 311.08" style="fill: #8da100"/>
            <polyline points="225.37 354.02 225.37 268.14 150.25 311.08 225.37 354.02" style="fill: #96aa09"/>
            <polyline points="150.25 311.08 150.25 311.08 225.37 268.14 150.25 225.2 150.25 311.07 150.25 311.08" style="fill: #23b00f"/>
            <polyline points="225.37 268.14 225.37 268.14 225.37 182.27 150.25 225.2 150.25 225.2 225.37 268.14" style="fill: #6c8000"/>
            <polyline points="225.37 268.14 225.37 268.14 300.49 225.2 225.37 182.27 225.37 268.14" style="fill: #6c8600"/>
            <polyline points="826.36 182.27 826.36 182.27 901.49 139.33 826.36 96.39 826.36 182.27" style="fill: #00854c"/>
            <polyline points="901.49 139.33 901.49 139.33 901.49 53.45 826.36 96.39 901.49 139.33" style="fill: #008152"/>
            <polyline points="826.36 182.27 826.36 96.39 751.24 139.33 826.36 182.27" style="fill: #008946"/>
            <polyline points="751.24 139.33 751.24 139.33 826.36 96.39 751.24 53.45 751.24 139.33" style="fill: #008f65"/>
            <polyline points="826.36 96.39 826.36 96.39 826.36 10.52 751.24 53.45 751.24 53.45 826.36 96.39" style="fill: #00996e"/>
            <polyline points="826.36 96.39 826.36 96.39 901.49 53.45 826.36 10.52 826.36 96.39" style="fill: #008856"/>
            <polyline points="525.87 182.27 525.87 182.27 600.99 139.33 525.87 96.39 525.87 182.27" style="fill: #11b2a2"/>
            <polyline points="600.99 139.33 600.99 139.33 600.99 53.45 525.87 96.39 600.99 139.33" style="fill: #09aaa5"/>
            <polyline points="525.87 182.27 525.87 96.39 450.74 139.33 525.87 182.27" style="fill: #10b1a3"/>
            <polyline points="450.74 139.33 450.74 139.33 525.87 96.39 450.74 53.45 450.74 139.33" style="fill: #04a59a"/>
            <polyline points="525.87 96.39 525.87 96.39 525.87 10.52 450.74 53.45 525.87 96.39" style="fill: #07a8a6"/>
            <polyline points="525.87 96.39 525.87 96.39 600.99 53.45 525.87 10.52 525.87 96.39" style="fill: #11b2b1"/>
            <polyline points="225.37 182.27 225.37 182.27 300.49 139.33 225.37 96.39 225.37 182.27" style="fill: #006a82"/>
            <polyline points="300.49 139.33 300.49 139.33 300.49 53.45 225.37 96.39 300.49 139.33" style="fill: #00627e"/>
            <polyline points="225.37 182.27 225.37 96.39 150.25 139.33 225.37 182.27" style="fill: #6317b8"/>
            <polyline points="150.25 139.33 150.25 139.33 225.37 96.39 150.25 53.45 150.25 139.33" style="fill: #5b00a1"/>
            <polyline points="225.37 96.39 225.37 96.39 225.37 10.52 150.25 53.45 225.37 96.39" style="fill: #2323c4"/>
            <polyline points="225.37 96.39 225.37 96.39 300.49 53.45 225.37 10.52 225.37 96.39" style="fill: #2115b6"/>
            <polyline points="826.36 10.52 826.36 10.52 901.49 -32.42 826.36 -75.35 826.36 10.52" style="fill: #008d61"/>
            <polyline points="826.36 10.52 826.36 -75.35 751.24 -32.42 826.36 10.52" style="fill: #00a17e"/>
            <polyline points="525.87 10.52 525.87 10.52 600.99 -32.42 525.87 -75.35 525.87 10.52" style="fill: #09a0aa"/>
            <polyline points="525.87 10.52 525.87 -75.35 450.74 -32.42 525.87 10.52" style="fill: #069fa7"/>
            <polyline points="225.37 10.52 225.37 10.52 300.49 -32.42 225.37 -75.35 225.37 10.52" style="fill: #1116b2"/>
            <polyline points="225.37 10.52 225.37 -75.35 150.25 -32.42 225.37 10.52" style="fill: #0210a3"/>
          </g>
          <rect y="-246.83" width="1201.98" height="1201.98" style="fill: none"/>
          <rect y="-246.1" width="1201.98" height="1201.98" style="mix-blend-mode: hue;fill: url(#420dc790-3081-4f2f-b322-acb6427a4e11)"/>
          <g style="opacity: 0.37">
            <polygon points="-20.68 659.67 225.38 519.9 375.62 605.78 600.99 476.96 826.36 605.78 976.61 519.91 1223.75 659.67 1223.75 1003.57 -20.68 1003.57 -20.68 659.67" style="fill: #fff"/>
          </g>
          <g style="opacity: 0.4">
            <polygon points="-20.68 601.91 225.38 462.15 375.62 548.02 600.99 419.2 826.36 548.02 976.61 462.15 1223.75 601.91 1223.75 945.81 -20.68 945.81 -20.68 601.91" style="fill: #fff"/>
          </g>
          <g style="opacity: 0.67">
            <polygon points="-20.68 672.65 225.38 532.88 375.62 618.75 600.99 489.94 826.36 618.75 976.61 532.88 1223.75 672.64 1223.75 1016.55 -20.68 1016.55 -20.68 672.65" style="fill: #fff"/>
          </g>
          <g style="opacity: 0.67">
            <polygon points="-20.68 680.94 225.38 541.17 375.62 627.04 600.99 498.23 826.36 627.04 976.61 541.17 1223.75 680.93 1223.75 1024.84 -20.68 1024.84 -20.68 680.94" style="fill: #fff"/>
          </g>
          <polygon points="-22.1 696.57 223.95 556.8 374.19 642.67 599.57 513.86 824.94 642.67 975.18 556.8 1222.32 696.56 1222.32 1040.47 -22.1 1040.47 -22.1 696.57" style="fill: #fff"/>
          <polyline points="-20.68 753.24 225.38 613.47 375.62 699.35 600.99 570.53 826.36 699.35 976.61 613.48 1223.75 753.24" style="fill: none;stroke: #fff;stroke-miterlimit: 10;stroke-width: 0.25px"/>
          <polyline points="-20.68 783.39 225.38 643.63 375.62 729.5 600.99 600.68 826.36 729.5 976.61 643.63 1223.75 783.39" style="fill: none;stroke: #fff;stroke-miterlimit: 10;stroke-width: 0.25px"/>
          <g>
            <polyline points="-20.68 719.42 225.38 579.65 375.62 665.53 600.99 536.71 826.36 665.53 976.61 579.66 1223.75 719.42" style="fill: none;stroke: #fff;stroke-miterlimit: 10;stroke-width: 6px"/>
            <polyline points="-20.68 707.13 225.38 567.36 375.62 653.23 600.99 524.42 826.36 653.23 976.61 567.36 1223.75 707.12" style="fill: none;stroke: #fff;stroke-miterlimit: 10;stroke-width: 5.73809523321688px"/>
            <polyline points="-20.68 694.83 225.38 555.06 375.62 640.94 600.99 512.12 826.36 640.94 976.61 555.07 1223.75 694.83" style="fill: none;stroke: #fff;stroke-miterlimit: 10;stroke-width: 5.47619047182563px"/>
            <polyline points="-20.68 682.53 225.38 542.77 375.62 628.64 600.99 499.83 826.36 628.64 976.61 542.77 1223.75 682.53" style="fill: none;stroke: #fff;stroke-miterlimit: 10;stroke-width: 5.214285710434379px"/>
            <polyline points="-20.68 670.24 225.38 530.47 375.62 616.35 600.99 487.53 826.36 616.35 976.61 530.48 1223.75 670.24" style="fill: none;stroke: #fff;stroke-miterlimit: 10;stroke-width: 4.952380949043128px"/>
            <polyline points="-20.68 657.94 225.38 518.17 375.62 604.05 600.99 475.23 826.36 604.05 976.61 518.18 1223.75 657.94" style="fill: none;stroke: #fff;stroke-miterlimit: 10;stroke-width: 4.690476187651878px"/>
            <polyline points="-20.68 645.65 225.38 505.88 375.62 591.75 600.99 462.94 826.36 591.75 976.61 505.88 1223.75 645.64" style="fill: none;stroke: #fff;stroke-miterlimit: 10;stroke-width: 4.428571426260627px"/>
            <polyline points="-20.68 633.35 225.38 493.58 375.62 579.46 600.99 450.64 826.36 579.46 976.61 493.59 1223.75 633.35" style="fill: none;stroke: #fff;stroke-miterlimit: 10;stroke-width: 4.166666664869377px"/>
            <polyline points="-20.68 621.05 225.38 481.29 375.62 567.16 600.99 438.35 826.36 567.16 976.61 481.29 1223.75 621.05" style="fill: none;stroke: #fff;stroke-miterlimit: 10;stroke-width: 3.904761903478126px"/>
            <polyline points="-20.68 608.76 225.38 468.99 375.62 554.87 600.99 426.05 826.36 554.87 976.61 469 1223.75 608.75" style="fill: none;stroke: #fff;stroke-miterlimit: 10;stroke-width: 3.6428571420868745px"/>
            <polyline points="-20.68 596.46 225.38 456.69 375.62 542.57 600.99 413.75 826.36 542.57 976.61 456.7 1223.75 596.46" style="fill: none;stroke: #fff;stroke-miterlimit: 10;stroke-width: 3.380952380695623px"/>
            <polyline points="-20.68 584.17 225.38 444.4 375.62 530.27 600.99 401.46 826.36 530.27 976.61 444.4 1223.75 584.16" style="fill: none;stroke: #fff;stroke-miterlimit: 10;stroke-width: 3.119047619304373px"/>
            <polyline points="-20.68 571.87 225.38 432.1 375.62 517.98 600.99 389.16 826.36 517.98 976.61 432.11 1223.75 571.87" style="fill: none;stroke: #fff;stroke-miterlimit: 10;stroke-width: 2.8571428579131224px"/>
            <polyline points="-20.68 559.58 225.38 419.81 375.62 505.68 600.99 376.87 826.36 505.68 976.61 419.81 1223.75 559.57" style="fill: none;stroke: #fff;stroke-miterlimit: 10;stroke-width: 2.595238096521872px"/>
            <polyline points="-20.68 547.28 225.38 407.51 375.62 493.38 600.99 364.57 826.36 493.38 976.61 407.52 1223.75 547.27" style="fill: none;stroke: #fff;stroke-miterlimit: 10;stroke-width: 2.3333333351306216px"/>
            <polyline points="-20.68 534.98 225.38 395.21 375.62 481.09 600.99 352.27 826.36 481.09 976.61 395.22 1223.75 534.98" style="fill: none;stroke: #fff;stroke-miterlimit: 10;stroke-width: 2.0714285737393707px"/>
            <polyline points="-20.68 522.69 225.38 382.92 375.62 468.79 600.99 339.98 826.36 468.79 976.61 382.92 1223.75 522.68" style="fill: none;stroke: #fff;stroke-miterlimit: 10;stroke-width: 1.8095238123481203px"/>
            <polyline points="-20.68 510.39 225.38 370.62 375.62 456.5 600.99 327.68 826.36 456.5 976.61 370.63 1223.75 510.39" style="fill: none;stroke: #fff;stroke-miterlimit: 10;stroke-width: 1.54761905095687px"/>
            <polyline points="-20.68 498.1 225.38 358.33 375.62 444.2 600.99 315.39 826.36 444.2 976.61 358.33 1223.75 498.09" style="fill: none;stroke: #fff;stroke-miterlimit: 10;stroke-width: 1.2857142895656193px"/>
            <polyline points="-20.68 485.8 225.38 346.03 375.62 431.9 600.99 303.09 826.36 431.9 976.61 346.04 1223.75 485.8" style="fill: none;stroke: #fff;stroke-miterlimit: 10;stroke-width: 1.0238095281743687px"/>
            <polyline points="-20.68 473.5 225.38 333.74 375.62 419.61 600.99 290.79 826.36 419.61 976.61 333.74 1223.75 473.5" style="fill: none;stroke: #fff;stroke-miterlimit: 10;stroke-width: 0.7619047667831182px"/>
            <polyline points="-20.68 461.21 225.38 321.44 375.62 407.31 600.99 278.5 826.36 407.31 976.61 321.44 1223.75 461.2" style="fill: none;stroke: #fff;stroke-miterlimit: 10;stroke-width: 0.5px"/>
          </g>
          <polyline points="-20.68 450.86 225.38 311.09 375.62 396.96 600.99 268.15 826.36 396.96 976.61 311.09 1223.75 450.85" style="fill: none;stroke: #fff;stroke-miterlimit: 10;stroke-width: 0.25px"/>
        </g>
        <rect x="200.83" y="-200.83" width="800" height="1201.65" transform="translate(200.83 1000.83) rotate(-90)" style="opacity: 0.78;mix-blend-mode: multiply;fill: url(#8f25afe3-13ca-484c-993c-834d024a0b5f)"/>
      </g>
    </g>
  </g>
</svg>
