<svg xmlns="http://www.w3.org/2000/svg" viewBox="0 0 1200 800"><defs><clipPath id="a"><path fill="none" d="M0 0h1200.22v800H0z"/></clipPath><linearGradient id="b" data-name="Rubí" y1="354.89" x2="1201.98" y2="354.89" gradientUnits="userSpaceOnUse"><stop offset="0" stop-color="#bf0c42"/><stop offset=".24" stop-color="#bf0b47"/><stop offset=".25" stop-color="#bf0b47"/><stop offset=".43" stop-color="#f6b5b6"/><stop offset=".46" stop-color="#e9a3a7"/><stop offset=".56" stop-color="#c8767f"/><stop offset=".65" stop-color="#ad505e"/><stop offset=".74" stop-color="#973245"/><stop offset=".83" stop-color="#881d33"/><stop offset=".92" stop-color="#7f1028"/><stop offset="1" stop-color="#7c0c24"/></linearGradient><linearGradient id="c" data-name="Degradado sin nombre 19" x1="129.13" y1="329.95" x2="929.13" y2="329.95" gradientTransform="translate(71.7 70.05)" gradientUnits="userSpaceOnUse"><stop offset=".01" stop-color="#230000" stop-opacity="0"/><stop offset=".8" stop-color="#230000" stop-opacity="0"/><stop offset=".84" stop-color="#250001" stop-opacity=".03"/><stop offset=".88" stop-color="#2d0104" stop-opacity=".11"/><stop offset=".91" stop-color="#390309" stop-opacity=".26"/><stop offset=".94" stop-color="#4b0510" stop-opacity=".45"/><stop offset=".97" stop-color="#620819" stop-opacity=".71"/><stop offset="1" stop-color="#7c0c24"/></linearGradient></defs><title>Artboard 1</title><g data-name="Layer 1" style="isolation:isolate"><g clip-path="url(#a)"><path d="M601 654.58l.28-.16-.28.16v-.33l-74.55-42.61L601 569v-.33l-75.12-42.94L601 568.7l-75.12 42.94L601 654.58m450.74 257.63v42.94h-75.12l75.12-42.94m-300.5 0v42.94h-75.13l75.13-42.94m-601 0v42.94H75.12l75.12-42.94M0 912.21l75.12 42.94H0v-42.94m0 44h1201.65v-1h-149.91v-43l75.12-42.94-75.12 42.94v-85.88l-75.12-42.93 75.12 42.93v85.88l-75.12 42.94-75.13-42.94-75.13-42.94 75.13 42.94 75.13 42.94H751.24v-42.94l75.12-42.94-75.12 42.94-75.13 42.94L601 912.21l-75.12-42.94L601 912.21l75.12 42.94H450.74v-42.94l75.13-42.94-75.13 42.94v42.94H150.25v-42.94l75.13-42.94-75.13 42.94-75.13 42.94L0 912.21v-85.88l75.12-42.93L0 826.33V654.58l75.12-42.94L0 654.58V482.83l75.12-42.94L0 482.83V311.08l75.12-42.94L0 311.08V139.33l75.12-42.94L0 139.33V-32.42l75.12-42.93L0-32.42v-171.75l74.52-42.6L0-204.17V956.16" fill="#de8e3d"/><path fill="#f36b52" d="M751.24 482.83V396.95l-75.13 42.94 75.13 42.94"/><path fill="#db3c3a" d="M751.24 396.96l75.12-42.94-75.12-42.94V396.96"/><path fill="#1fc0a3" d="M600.99 225.2v-85.87l-75.12 42.94 75.12 42.93"/><path fill="#008a2f" d="M751.24 225.2l75.12-42.93-75.12-42.94v85.87"/><path fill="#00694e" d="M1051.74 53.45l75.12-42.93-75.12-42.94v85.87"/><path fill="#1fc092" d="M450.74 225.2l75.13-42.93-75.13-42.94v85.87"/><path fill="#cbbb2a" d="M300.49 482.83l75.13-42.94-75.13-42.94v85.88"/><path fill="#007466" d="M901.49 139.33l75.13-42.94-75.13-42.94v85.88"/><path fill="#8ece2d" d="M600.99 311.08l75.12-42.94-75.12-42.94V311.08"/><path fill="#008a5c" d="M901.49 53.45v-85.87l-75.13 42.94 75.13 42.93"/><path fill="#becf2e" d="M600.99 396.95v-85.87l-75.12 42.94 75.12 42.93"/><path fill="#c92853" d="M901.49 311.08l75.13-42.94-75.13-42.94V311.08"/><path fill="#008893" d="M150.25 311.07V225.2l-75.13 42.94 75.13 42.93"/><path fill="#73b00f" d="M300.49 311.08l75.13-42.94-75.13-42.94V311.08"/><path d="M150.25 482.88V397l-75.13 42.89 75.12 42.94" fill="#b2aa11"/><path d="M150.25 826.34v-85.88L75.12 783.4l75.12 42.93" fill="#bc2f1b"/><path fill="#c6cb2a" d="M450.74 396.96l75.13-42.94-75.13-42.94V396.96"/><path d="M150.25 654.58v-85.87l-75.13 42.93 75.12 42.94" fill="#cdb22c"/><path fill="#10b1a7" d="M600.99 139.33l75.12-42.94-75.12-42.94v85.88"/><path fill="#dc3b45" d="M751.24 568.71l75.12-42.94-75.12-42.94v85.88"/><path d="M1051.74 654.58v-85.87l-75.12 42.94 75.12 42.94" fill="#f554e9"/><path fill="#dfa73e" d="M600.99 568.71v-85.88l-75.12 42.94 75.12 42.94"/><path fill="#e03f56" d="M901.49 740.46v-85.88l-75.13 42.94 75.13 42.94"/><path fill="#cf2e49" d="M901.49 568.71v-85.88l-75.13 42.94 75.13 42.94"/><path fill="#00999c" d="M450.74 53.45l75.13-42.93-75.13-42.94v85.87"/><path fill="#dcb33b" d="M450.74 568.71l75.13-42.94-75.13-42.94v85.88"/><path d="M1051.74 482.88V397l-75.12 42.94 75.12 42.94" fill="#fd5c70"/><path fill="#0d71ae" d="M1051.74 311.07V225.2l-75.12 42.94 75.12 42.93"/><path fill="#d87837" d="M600.99 740.46v-85.88l-75.12 42.94 75.12 42.94"/><path fill="#d2c231" d="M300.49 396.95v-85.87l-75.12 42.94 75.12 42.93"/><path fill="#d45b33" d="M751.24 740.46l75.12-42.94-75.12-42.94v85.88"/><path fill="#009883" d="M751.24 139.33V53.45l-75.13 42.94 75.13 42.94"/><path fill="#00894b" d="M300.49 225.2v-85.87l-75.12 42.94 75.12 42.93"/><path fill="#daa039" d="M300.49 740.46v-85.88l-75.12 42.94 75.12 42.94"/><path fill="#e4c643" d="M300.49 568.71v-85.88l-75.12 42.94 75.12 42.94"/><path fill="#006474" d="M1051.74 225.2l75.12-42.93-75.12-42.94v85.87"/><path fill="#006f5b" d="M1051.74 139.33V53.45l-75.12 42.94 75.12 42.94"/><path fill="#c82744" d="M901.49 396.95v-85.87l-75.13 42.94 75.13 42.93"/><path fill="#db8a3a" d="M450.74 740.46l75.13-42.94-75.13-42.94v85.88"/><path fill="#007f51" d="M901.49 225.2v-85.87l-75.13 42.94 75.13 42.93"/><path fill="#0b3cac" d="M300.49 53.45v-85.87l-75.12 42.94 75.12 42.93"/><path fill="#009378" d="M751.24 53.45l75.12-42.93-75.12-42.94v85.87"/><path d="M450.74 826.34v-85.88l-75.12 42.94 75.12 42.93" fill="#d36e32"/><path fill="#02a390" d="M450.74 139.33V53.45l-75.12 42.94 75.12 42.94"/><path d="M450.74 482.88V397l-75.12 42.94 75.12 42.94" fill="#d6c835"/><path fill="#85cb2a" d="M450.74 311.07V225.2l-75.12 42.94 75.12 42.93"/><path fill="#ff797d" d="M1051.74 568.71l75.12-42.94-75.12-42.94v85.88"/><path fill="#11a8b2" d="M1051.74 740.46l75.12-42.94-75.12-42.94v85.88"/><path d="M1051.74 826.34v-85.88l-75.12 42.94 75.12 42.93" fill="#15b6b3"/><path fill="#f6556b" d="M1051.74 396.96l75.12-42.94-75.12-42.94V396.96"/><path fill="#0baaac" d="M600.99 53.45v-85.87l-75.12 42.94 75.12 42.93"/><path fill="#a01abb" d="M150.25 225.2l75.12-42.93-75.12-42.94v85.87"/><path fill="#c8ad27" d="M150.25 568.71l75.12-42.94-75.12-42.94v85.88"/><path fill="#c87627" d="M150.25 740.46l75.12-42.94-75.12-42.94v85.88"/><path fill="#abb615" d="M150.25 396.96l75.12-42.94-75.12-42.94V396.96"/><path fill="#d68c35" d="M751.24 826.33v-85.87l-75.13 42.94 75.13 42.93"/><path d="M450.74 654.58v-85.87l-75.12 42.94 75.12 42.94" fill="#e0a23f"/><path fill="#0b37ac" d="M1201.65 225.01v-85.49l-74.79 42.75 74.79 42.74"/><path fill="#0e73af" d="M1201.65 396.76v-85.49l-74.79 42.75 74.79 42.74"/><path fill="#3a9200" d="M0 654.58l75.12-42.94L0 568.71v85.87"/><path fill="#1db9be" d="M901.49 826.33l75.13-42.93-75.13-42.94v85.87"/><path fill="#005d73" d="M300.49 139.33l75.13-42.94-75.13-42.94v85.88"/><path fill="#2c2ccd" d="M0 826.33l75.12-42.93L0 740.46v85.87"/><path fill="#226dc3" d="M1201.65 568.51v-85.49l-74.79 42.75 74.79 42.74"/><path fill="#e46043" d="M751.24 654.58v-85.87l-75.13 42.93 75.13 42.94"/><path fill="#d83769" d="M901.49 654.58l75.13-42.94-75.13-42.93v85.87"/><path fill="#005073" d="M0 139.33l75.12-42.94L0 53.45v85.88"/><path d="M601 569l.28-.16-.28-.16v.32m.57 85.22l74.55-42.61L601.57 569v85.22m-.57.33l.28-.16-.28-.16v.33" fill="#da8039"/><path fill="#005f48" d="M1201.65 53.26v-85.49l-74.79 42.75 74.79 42.74"/><path fill="#009072" d="M0 482.83l75.12-42.94L0 396.95v85.88"/><path fill="#e1a640" d="M300.49 654.58l75.13-42.94-75.13-42.93v85.87"/><path fill="#d63552" d="M901.49 482.83l75.13-42.94-75.13-42.94v85.88"/><path fill="#006570" d="M0 311.08l75.12-42.94L0 225.2V311.08"/><path fill="#dc7d3b" d="M600.99 826.33l75.12-42.93-75.12-42.94v85.87"/><path fill="#c54c24" d="M300.49 826.33l75.13-42.93-75.13-42.94v85.87"/><path fill="#e3b542" d="M600.99 482.83l75.12-42.94-75.12-42.94v85.88"/><path fill="#c45923" d="M751.24 311.07V225.2l-75.13 42.94 75.13 42.93"/><path fill="#008ca1" d="M1201.65 740.27v-85.5l-74.79 42.75 74.79 42.75"/><path fill="#099aaa" d="M1126.86 869.27l74.79-42.75v-.38l-74.79-42.74v85.87"/><path fill="#008ca1" d="M1201.65 826.14v-85.49l-74.79 42.75 74.79 42.74"/><path fill="#009099" d="M1126.86 869.27V783.4l-75.12 42.93 75.12 42.94"/><path fill="#039ca4" d="M1051.74 826.33l75.12-42.93-75.12-42.94v85.87"/><path fill="#00929f" d="M1126.86 783.4v-85.88l-75.12 42.94 75.12 42.94"/><path fill="#0893a9" d="M1126.86 783.4l74.79-42.75v-.38l-74.79-42.75v85.88"/><path fill="#1693b7" d="M1126.86 697.52l74.79-42.75v-.38l-74.79-42.75v85.88"/><path fill="#0e7caf" d="M1201.65 654.39v-85.5l-74.79 42.75 74.79 42.75"/><path fill="#1faac0" d="M1126.86 697.52v-85.88l-75.12 42.94 75.12 42.94"/><path fill="#5698f7" d="M1051.74 654.58l75.12-42.94-75.12-42.93v85.87"/><path fill="#ff6985" d="M1126.86 611.64v-85.87l-75.12 42.94 75.12 42.93"/><path fill="#4273e3" d="M1126.86 611.64l74.79-42.75v-.38l-74.79-42.74v85.87"/><path fill="#7954f5" d="M1126.86 525.77l74.79-42.75v-.38l-74.79-42.75v85.88"/><path fill="#2167c2" d="M1201.65 482.64v-85.5l-74.79 42.75 74.79 42.75"/><path fill="#ff6c71" d="M1126.86 525.77v-85.88l-75.12 42.94 75.12 42.94"/><path fill="#ff7370" d="M1051.74 482.83l75.12-42.94-75.12-42.93v85.87"/><path fill="#f55464" d="M1126.86 439.89v-85.87l-75.12 42.94 75.12 42.93"/><path fill="#c842e3" d="M1126.86 439.89l74.79-42.75v-.38l-74.79-42.74v85.87"/><path fill="#2a70cb" d="M1126.86 354.02l74.79-42.75v-.38l-74.79-42.75v85.88"/><path fill="#00488f" d="M1201.65 310.89v-85.5l-74.79 42.75 74.79 42.75"/><path fill="#9141e2" d="M1126.86 354.02v-85.88l-75.12 42.94 75.12 42.94"/><path fill="#3b59dc" d="M1051.74 311.08l75.12-42.94-75.12-42.93v85.87"/><path fill="#075ca8" d="M1126.86 268.14v-85.87l-75.12 42.93v.01l75.12 42.93"/><path fill="#005686" d="M1126.86 268.14l74.79-42.75v-.38l-74.79-42.74v85.87"/><path fill="#005b5f" d="M1126.86 182.27l74.79-42.75v-.38l-74.79-42.75v85.88"/><path fill="#00515b" d="M1201.65 139.14v-85.5l-74.79 42.75 74.79 42.75"/><path fill="#005961" d="M1126.86 182.27V96.39l-75.12 42.94 75.12 42.94"/><path fill="#006658" d="M1051.74 139.33l75.12-42.94-75.12-42.94v85.88"/><path fill="#006854" d="M1126.86 96.39V10.52l-75.12 42.93 75.12 42.94"/><path fill="#006153" d="M1126.86 96.39l74.79-42.75v-.38l-74.79-42.74v85.87"/><path fill="#00694d" d="M1126.86 10.52l74.79-42.75v-.38l-74.79-42.74v85.87"/><path fill="#00684e" d="M1126.86 10.52v-85.87l-75.12 42.93 75.12 42.94"/><path fill="#09a3aa" d="M976.62 869.27V783.4l-75.13 42.93 75.13 42.94"/><path fill="#09a5aa" d="M976.62 869.27l75.12-42.94-75.12-42.93v85.87"/><path fill="#d56f34" d="M676.11 869.27V783.4l-75.12 42.93 75.12 42.94"/><path fill="#d47f33" d="M676.11 869.27l75.13-42.94-75.13-42.93v85.87"/><path fill="#b93718" d="M375.62 869.27V783.4l-75.13 42.93 75.13 42.94"/><path fill="#ca5a29" d="M375.62 869.27l75.12-42.94-75.12-42.93v85.87"/><path fill="#8c007c" d="M75.12 869.27V783.4L0 826.33l75.12 42.94"/><path fill="#b4132b" d="M75.12 869.27l75.13-42.94-75.13-42.93v85.87"/><path fill="#0ea9af" d="M976.62 783.4l75.12-42.94-75.12-42.94v85.88"/><path fill="#1aabbb" d="M1051.74 740.46v-85.88l-75.12 42.94 75.12 42.94"/><path fill="#0aa6ab" d="M976.62 783.4v-85.88l-75.13 42.94 75.13 42.94"/><path fill="#1792b8" d="M901.49 740.46l75.13-42.94-75.13-42.94v85.88"/><path fill="#c639da" d="M976.62 697.52v-85.88l-75.13 42.94 75.13 42.94"/><path fill="#4b8dec" d="M976.62 697.52l75.12-42.94-75.12-42.94v85.88"/><path fill="#d67a35" d="M676.11 783.4l75.13-42.94-75.13-42.94v85.88"/><path fill="#d36932" d="M751.24 740.46v-85.88l-75.13 42.94 75.13 42.94"/><path fill="#dc7c3b" d="M676.11 783.4v-85.88l-75.12 42.94 75.12 42.94"/><path fill="#d77536" d="M600.99 740.46l75.12-42.94-75.12-42.94v85.88"/><path fill="#d77036" d="M676.11 697.52v-85.88l-74.54 42.61v.33l-.29-.16-.29.16 75.12 42.94"/><path fill="#e57044" d="M676.11 697.52l75.13-42.94-75.13-42.94v85.88"/><path fill="#d98638" d="M375.62 783.4l75.12-42.94-75.12-42.94v85.88"/><path fill="#dd953c" d="M450.74 740.46v-85.88l-75.12 42.94 75.12 42.94"/><path fill="#d06b2f" d="M375.62 783.4v-85.88l-75.13 42.94 75.13 42.94"/><path fill="#d78736" d="M300.49 740.46l75.13-42.94-75.13-42.94v85.88"/><path fill="#db973a" d="M375.62 697.52v-85.88l-75.13 42.94 75.13 42.94"/><path fill="#e19f40" d="M375.62 697.52l75.12-42.94-75.12-42.94v85.88"/><path fill="#b04d0f" d="M75.12 783.4l75.13-42.94-75.13-42.94v85.88"/><path fill="#bf871e" d="M150.25 740.46v-85.88l-75.13 42.94 75.13 42.94"/><path fill="#765000" d="M75.12 783.4v-85.88L0 740.46l75.12 42.94"/><path fill="#009800" d="M0 740.46l75.12-42.94L0 654.58v85.88"/><path fill="#7c8000" d="M75.12 697.52v-85.88L0 654.58l75.12 42.94"/><path fill="#bb961a" d="M75.12 697.52l75.13-42.94-75.13-42.94v85.88"/><path fill="#ff6680" d="M976.62 611.64l75.12-42.93-75.12-42.94v85.87"/><path fill="#ff6f83" d="M1051.74 568.71v-85.88l-75.12 42.94 75.12 42.94"/><path fill="#ea496d" d="M976.62 611.64v-85.87l-75.13 42.94 75.13 42.93"/><path fill="#dd3c57" d="M901.49 568.71l75.13-42.94-75.13-42.94v85.88"/><path fill="#f04f69" d="M976.62 525.77v-85.88l-75.13 42.94 75.13 42.94"/><path fill="#f8576e" d="M976.62 525.77l75.12-42.94-75.12-42.94v85.88"/><path fill="#ec684b" d="M676.11 611.64l75.13-42.93-75.13-42.94v85.87"/><path fill="#e35042" d="M751.24 568.71v-85.88l-75.13 42.94 75.13 42.94"/><path fill="#de8e3d" d="M676.11 611.64v-85.87l-75.12 42.94.29.16.29-.16v.32l74.54 42.61"/><path fill="#e2a141" d="M600.99 568.71l75.12-42.94-75.12-42.94v85.88"/><path fill="#e5a944" d="M676.11 525.77v-85.88l-75.12 42.94 75.12 42.94"/><path fill="#f27a51" d="M676.11 525.77l75.13-42.94-75.13-42.94v85.88"/><path fill="#ddae3c" d="M375.62 611.64l75.12-42.93-75.12-42.94v85.87"/><path fill="#dab839" d="M450.74 568.71v-85.88l-75.12 42.94 75.12 42.94"/><path fill="#dab639" d="M375.62 611.64v-85.87l-75.13 42.94 75.13 42.93"/><path fill="#e0c03f" d="M300.49 568.71l75.13-42.94-75.13-42.94v85.88"/><path fill="#d6c035" d="M375.62 525.77v-85.88l-75.13 42.94 75.13 42.94"/><path fill="#d3b632" d="M375.62 525.77l75.12-42.94-75.12-42.94v85.88"/><path fill="#b49613" d="M75.12 611.64l75.13-42.93-75.13-42.94v85.87"/><path fill="#b9a618" d="M150.25 568.71v-85.88l-75.13 42.94 75.13 42.94"/><path fill="#7e9600" d="M75.12 611.64v-85.87L0 568.71l75.12 42.93"/><path fill="#009161" d="M0 568.71l75.12-42.94L0 482.83v85.88"/><path fill="#07a867" d="M75.12 525.77v-85.88L0 482.83l75.12 42.94"/><path fill="#7e9d00" d="M75.12 525.77l75.13-42.94-75.13-42.94v85.88"/><path fill="#ed4c6a" d="M976.62 439.89l75.12-42.94-75.12-42.93v85.87"/><path fill="#e84775" d="M1051.74 396.95V311.07l-75.12 42.95 75.12 42.93"/><path fill="#df3e5d" d="M976.62 439.89v-85.87l-75.13 42.93 75.13 42.94"/><path fill="#d43355" d="M901.49 396.95l75.13-42.93-75.13-42.94v85.87"/><path fill="#d13061" d="M976.62 354.02v-85.88l-75.13 42.94 75.13 42.94"/><path fill="#d5347f" d="M976.62 354.02l75.12-42.95-75.12-42.93v85.88"/><path fill="#ee7c4d" d="M676.11 439.89l75.13-42.94-75.13-42.93v85.87"/><path fill="#d95d38" d="M751.24 396.95V311.07l-75.13 42.95 75.13 42.93"/><path fill="#e29a41" d="M676.11 439.89v-85.87l-75.12 42.93 75.12 42.94"/><path fill="#dab639" d="M600.99 396.95l75.12-42.93-75.12-42.94v85.87"/><path fill="#c2af21" d="M676.11 354.02v-85.88l-75.12 42.94 75.12 42.94"/><path fill="#d98038" d="M676.11 354.02l75.13-42.95-75.13-42.93v85.88"/><path fill="#d3c732" d="M375.62 439.89l75.12-42.94-75.12-42.93v85.87"/><path fill="#c3c726" d="M450.74 396.95V311.07l-75.12 42.95 75.12 42.93"/><path fill="#cec32d" d="M375.62 439.89v-85.87l-75.13 42.93 75.13 42.94"/><path fill="#c6b925" d="M300.49 396.95l75.13-42.93-75.13-42.94v85.87"/><path fill="#a7b615" d="M375.62 354.02v-85.88l-75.13 42.94 75.13 42.94"/><path fill="#afc01f" d="M375.62 354.02l75.12-42.95-75.12-42.93v85.88"/><path fill="#56bf1e" d="M75.12 439.89l75.13-42.94-75.13-42.93v85.87"/><path fill="#4dc423" d="M150.25 396.95V311.07l-75.13 42.95 75.13 42.93"/><path fill="#02a378" d="M75.12 439.89v-85.87L0 396.95l75.12 42.94"/><path fill="#009274" d="M0 396.95l75.12-42.93L0 311.08v85.87"/><path fill="#009690" d="M75.12 354.02v-85.88L0 311.08l75.12 42.94"/><path fill="#009b82" d="M75.12 354.02l75.13-42.95-75.13-42.93v85.88"/><path fill="#00728c" d="M976.62 268.14l75.12-42.94-75.12-42.93v85.87"/><path fill="#006f68" d="M1051.74 225.2v-85.87l-75.12 42.94 75.12 42.93"/><path fill="#1768b8" d="M976.62 268.14v-85.87l-75.13 42.93 75.13 42.94"/><path fill="#00785a" d="M901.49 225.2l75.13-42.93-75.13-42.94v85.87"/><path fill="#007859" d="M976.62 182.27V96.39l-75.13 42.94 75.13 42.94"/><path fill="#00705f" d="M976.62 182.27l75.12-42.94-75.12-42.94v85.88"/><path fill="#0dae35" d="M676.11 268.14l75.13-42.94-75.13-42.93v85.87"/><path fill="#01a273" d="M751.24 225.2v-85.87l-75.13 42.94 75.13 42.93"/><path fill="#54c726" d="M676.11 268.14v-85.87l-75.12 42.93 75.12 42.94"/><path fill="#2dce86" d="M600.99 225.2l75.12-42.93-75.12-42.94v85.87"/><path fill="#10b196" d="M676.11 182.27V96.39l-75.12 42.94 75.12 42.94"/><path fill="#02a38d" d="M676.11 182.27l75.13-42.94-75.13-42.94v85.88"/><path fill="#7ac423" d="M375.62 268.14l75.12-42.94-75.12-42.93v85.87"/><path fill="#2acb62" d="M450.74 225.2v-85.87l-75.12 42.94 75.12 42.93"/><path fill="#20c13d" d="M375.62 268.14v-85.87l-75.13 42.93 75.13 42.94"/><path fill="#13b453" d="M300.49 225.2l75.13-42.93-75.13-42.94v85.87"/><path fill="#008671" d="M375.62 182.27V96.39l-75.13 42.94 75.13 42.94"/><path fill="#01a27d" d="M375.62 182.27l75.12-42.94-75.12-42.94v85.88"/><path fill="#5e0dae" d="M150.25 139.33V53.45L75.12 96.39l75.13 42.94"/><path fill="#5b00a1" d="M150.25 53.45l75.12-42.93-75.12-42.94v85.87"/><path fill="#005892" d="M75.12 268.14l75.13-42.94-75.13-42.93v85.87"/><path fill="#3423c4" d="M150.25 225.2v-85.87l-75.13 42.94 75.13 42.93"/><path fill="#00547e" d="M75.12 268.14v-85.87L0 225.2l75.12 42.94"/><path fill="#005974" d="M0 225.2l75.12-42.93L0 139.33v85.87"/><path fill="#005172" d="M75.12 182.27V96.39L0 139.33l75.12 42.94"/><path fill="#6317b8" d="M75.12 182.27l75.13-42.94-75.13-42.94v85.88"/><path fill="#007c5e" d="M976.62 96.39l75.12-42.94-75.12-42.93v85.87"/><path fill="#007054" d="M1051.74 53.45v-85.87l-75.12 42.94 75.12 42.93"/><path fill="#007f58" d="M976.62 96.39V10.52l-75.13 42.93 75.13 42.94"/><path fill="#007b5a" d="M901.49 53.45l75.13-42.93-75.13-42.94v85.87"/><path fill="#007f60" d="M976.62 10.52v-85.87l-75.13 42.93 75.13 42.94"/><path fill="#00785d" d="M976.62 10.52l75.12-42.94-75.12-42.93v85.87"/><path fill="#00a196" d="M676.11 96.39l75.13-42.94-75.13-42.93v85.87"/><path fill="#00998c" d="M751.24 53.45v-85.87l-75.13 42.94 75.13 42.93"/><path fill="#05a6a1" d="M676.11 96.39V10.52l-75.12 42.93 75.12 42.94"/><path fill="#07a8a8" d="M600.99 53.45l75.12-42.93-75.12-42.94v85.87"/><path fill="#05a4a6" d="M676.11 10.52v-85.87l-75.12 42.93 75.12 42.94"/><path fill="#009e96" d="M676.11 10.52l75.13-42.94-75.13-42.93v85.87"/><path fill="#009287" d="M375.62 96.39l75.12-42.94-75.12-42.93v85.87"/><path fill="#00838d" d="M450.74 53.45v-85.87l-75.12 42.94 75.12 42.93"/><path fill="#00697b" d="M375.62 96.39V10.52l-75.13 42.93 75.13 42.94"/><path fill="#00557b" d="M300.49 53.45l75.13-42.93-75.13-42.94v85.87"/><path fill="#005680" d="M375.62 10.52v-85.87l-75.13 42.93 75.13 42.94"/><path fill="#006787" d="M375.62 10.52l75.12-42.94-75.12-42.93v85.87"/><path fill="#003090" d="M75.12 96.39l75.13-42.94-75.13-42.93v85.87"/><path fill="#091faa" d="M150.25 53.45v-85.87L75.12 10.52l75.13 42.93"/><path fill="#004870" d="M75.12 96.39V10.52L0 53.45l75.12 42.94"/><path fill="#00506a" d="M0 53.45l75.12-42.93L0-32.42v85.87"/><path fill="#004b6a" d="M75.12 10.52v-85.87L0-32.42l75.12 42.94"/><path fill="#00264c" d="M75.12 10.52l75.13-42.94-75.13-42.93v85.87"/><path fill="#14b562" d="M826.36 869.27l75.13-42.94-75.13-42.93v85.87"/><path fill="#12b38a" d="M901.49 826.33v-85.87l-75.13 42.94 75.13 42.93"/><path fill="#62ad0c" d="M826.36 869.27V783.4l-75.12 42.93 75.12 42.94"/><path fill="#6697ff" d="M751.24 740.46"/><path fill="#ba8919" d="M751.24 826.33l75.12-42.93-75.12-42.94v85.87"/><path fill="#bc761b" d="M826.36 783.4v-85.88l-75.12 42.94 75.12 42.94"/><path fill="#32bd1c" d="M826.36 783.4l75.13-42.94-75.13-42.94v85.88"/><path fill="#d56934" d="M525.87 869.27l75.12-42.94-75.12-42.93v85.87"/><path fill="#e98648" d="M600.99 826.33v-85.87l-75.12 42.94 75.12 42.93"/><path fill="#c84f27" d="M525.87 869.27V783.4l-75.13 42.93 75.13 42.94"/><path fill="#d36432" d="M450.74 826.33l75.13-42.93-75.13-42.94v85.87"/><path fill="#d87537" d="M525.87 783.4v-85.88l-75.13 42.94 75.13 42.94"/><path fill="#da7f39" d="M525.87 783.4l75.12-42.94-75.12-42.94v85.88"/><path fill="#b92b18" d="M225.37 869.27l75.12-42.94-75.12-42.93v85.87"/><path fill="#cd602c" d="M300.49 826.33v-85.87l-75.12 42.94 75.12 42.93"/><path fill="#ba2119" d="M225.37 869.27V783.4l-75.12 42.93 75.12 42.94"/><path fill="#c0311f" d="M150.25 826.33l75.12-42.93-75.12-42.94v85.87"/><path fill="#cd602c" d="M225.37 783.4v-85.88l-75.12 42.94 75.12 42.94"/><path fill="#cd6c2c" d="M225.37 783.4l75.12-42.94-75.12-42.94v85.88"/><path fill="#dc3b4d" d="M826.36 697.52l75.13-42.94-75.13-42.94v85.88"/><path fill="#d53457" d="M901.49 654.58v-85.87l-75.13 42.93 75.13 42.94"/><path fill="#de453d" d="M826.36 697.52v-85.88l-75.12 42.94 75.12 42.94"/><path fill="#de493d" d="M751.24 654.58l75.12-42.94-75.12-42.93v85.87"/><path fill="#6697ff" d="M751.24 568.71"/><path fill="#d93845" d="M826.36 611.64v-85.87l-75.12 42.94 75.12 42.93"/><path fill="#d4334e" d="M826.36 611.64l75.13-42.93-75.13-42.94v85.87"/><path fill="#da8139" d="M525.87 697.52l75.12-42.94-75.12-42.94v85.88"/><path fill="#e98648" d="M600.99 654.26v-85.23l-74.55 42.61 74.55 42.62"/><path fill="#e28f41" d="M601.28 654.42l.29-.17v-85.22l-.29-.16-.29.16v85.23l.29.16"/><path fill="#de7f3d" d="M601.57 654.58v-.33l-.29.17.29.16"/><path fill="#e59a44" d="M601.57 569.03v-.32l-.29.16.29.16"/><path fill="#dd8c3c" d="M525.87 697.52v-85.88l-75.13 42.94 75.13 42.94"/><path fill="#df923e" d="M450.74 654.58l75.13-42.94-75.13-42.93v85.87"/><path fill="#dea33d" d="M525.87 611.64v-85.87l-75.13 42.94 75.13 42.93"/><path fill="#de983d" d="M525.87 611.64l75.12-42.93-75.12-42.94v85.87"/><path fill="#e0ba3f" d="M225.37 697.52l75.12-42.94-75.12-42.94v85.88"/><path fill="#e4c543" d="M300.49 654.58v-85.87l-75.12 42.93 75.12 42.94"/><path fill="#e3c342" d="M225.37 697.52v-85.88l-75.12 42.94 75.12 42.94"/><path fill="#debf3d" d="M150.25 654.58l75.12-42.94-75.12-42.93v85.87"/><path fill="#d2b731" d="M225.37 611.64v-85.87l-75.12 42.94 75.12 42.93"/><path fill="#d9be38" d="M225.37 611.64l75.12-42.93-75.12-42.94v85.87"/><path fill="#ba1933" d="M826.36 525.77l75.13-42.94-75.13-42.94v85.88"/><path fill="#cc2b53" d="M901.49 482.83v-85.88l-75.13 42.94 75.13 42.94"/><path fill="#d73647" d="M826.36 525.77v-85.88l-75.12 42.94 75.12 42.94"/><path fill="#ef4e58" d="M751.24 482.83l75.12-42.94-75.12-42.93v85.87"/><path fill="#6697ff" d="M751.24 396.96v-.01.01"/><path fill="#e44353" d="M826.36 439.89v-85.87l-75.12 42.94 75.12 42.93"/><path fill="#c82745" d="M826.36 439.89l75.13-42.94-75.13-42.93v85.87"/><path fill="#dfc73e" d="M525.87 525.77l75.12-42.94-75.12-42.94v85.88"/><path fill="#dbc53a" d="M600.99 482.83v-85.88l-75.12 42.94 75.12 42.94"/><path fill="#e3cb42" d="M525.87 525.77v-85.88l-75.13 42.94 75.13 42.94"/><path fill="#d9cb38" d="M450.74 482.83l75.13-42.94-75.13-42.93v85.87"/><path fill="#e0d43f" d="M525.87 439.89v-85.87l-75.13 42.94 75.13 42.93"/><path fill="#d4cd33" d="M525.87 439.89l75.12-42.94-75.12-42.93v85.87"/><path fill="#d2be31" d="M225.37 525.77l75.12-42.94-75.12-42.94v85.88"/><path fill="#cbba2a" d="M300.49 482.83v-85.88l-75.12 42.94 75.12 42.94"/><path fill="#ccba2b" d="M225.37 525.77v-85.88l-75.12 42.94 75.12 42.94"/><path fill="#c0b71f" d="M150.25 482.83l75.12-42.94-75.12-42.93v85.87"/><path fill="#bdb21c" d="M225.37 439.89v-85.87l-75.12 42.94 75.12 42.93"/><path fill="#c8bd27" d="M225.37 439.89l75.12-42.94-75.12-42.93v85.87"/><path fill="#c92841" d="M826.36 354.02l75.13-42.94-75.13-42.94v85.88"/><path fill="#c82727" d="M901.49 311.08V225.2l-75.13 42.94 75.13 42.94"/><path fill="#ce2d35" d="M826.36 354.02v-85.88l-75.12 42.94 75.12 42.94"/><path fill="#6697ff" d="M751.24 225.21v-.01.01"/><path fill="#cd3b2c" d="M751.24 311.08l75.12-42.94-75.12-42.93v85.87"/><path fill="#b43513" d="M826.36 268.14v-85.87l-75.12 42.93v.01l75.12 42.93"/><path fill="#297a00" d="M826.36 268.14l75.13-42.94-75.13-42.93v85.87"/><path fill="#94d635" d="M525.87 354.02l75.12-42.94-75.12-42.94v85.88"/><path fill="#5de443" d="M600.99 311.08V225.2l-75.12 42.94 75.12 42.94"/><path fill="#96cc2b" d="M525.87 354.02v-85.88l-75.13 42.94 75.13 42.94"/><path fill="#57dd3c" d="M450.74 311.08l75.13-42.94-75.13-42.93v85.87"/><path fill="#2ecf80" d="M525.87 268.14v-85.87l-75.13 42.93v.01l75.13 42.93"/><path fill="#30d18a" d="M525.87 268.14l75.12-42.94-75.12-42.93v85.87"/><path fill="#b8ab17" d="M225.37 354.02l75.12-42.94-75.12-42.94v85.88"/><path fill="#8da100" d="M300.49 311.08V225.2l-75.12 42.94 75.12 42.94"/><path fill="#96aa09" d="M225.37 354.02v-85.88l-75.12 42.94 75.12 42.94"/><path fill="#23b00f" d="M150.25 311.08l75.12-42.94-75.12-42.94V311.08"/><path fill="#6c8000" d="M225.37 268.14v-85.87l-75.12 42.93 75.12 42.94"/><path fill="#6c8600" d="M225.37 268.14l75.12-42.94-75.12-42.93v85.87"/><path fill="#00854c" d="M826.36 182.27l75.13-42.94-75.13-42.94v85.88"/><path fill="#008152" d="M901.49 139.33V53.45l-75.13 42.94 75.13 42.94"/><path fill="#008946" d="M826.36 182.27V96.39l-75.12 42.94 75.12 42.94"/><path fill="#008f65" d="M751.24 139.33l75.12-42.94-75.12-42.94v85.88"/><path fill="#00996e" d="M826.36 96.39V10.52l-75.12 42.93 75.12 42.94"/><path fill="#008856" d="M826.36 96.39l75.13-42.94-75.13-42.93v85.87"/><path fill="#11b2a2" d="M525.87 182.27l75.12-42.94-75.12-42.94v85.88"/><path fill="#09aaa5" d="M600.99 139.33V53.45l-75.12 42.94 75.12 42.94"/><path fill="#10b1a3" d="M525.87 182.27V96.39l-75.13 42.94 75.13 42.94"/><path fill="#04a59a" d="M450.74 139.33l75.13-42.94-75.13-42.94v85.88"/><path fill="#07a8a6" d="M525.87 96.39V10.52l-75.13 42.93 75.13 42.94"/><path fill="#11b2b1" d="M525.87 96.39l75.12-42.94-75.12-42.93v85.87"/><path fill="#006a82" d="M225.37 182.27l75.12-42.94-75.12-42.94v85.88"/><path fill="#00627e" d="M300.49 139.33V53.45l-75.12 42.94 75.12 42.94"/><path fill="#6317b8" d="M225.37 182.27V96.39l-75.12 42.94 75.12 42.94"/><path fill="#5b00a1" d="M150.25 139.33l75.12-42.94-75.12-42.94v85.88"/><path fill="#2323c4" d="M225.37 96.39V10.52l-75.12 42.93 75.12 42.94"/><path fill="#2115b6" d="M225.37 96.39l75.12-42.94-75.12-42.93v85.87"/><path fill="#008d61" d="M826.36 10.52l75.13-42.94-75.13-42.93v85.87"/><path fill="#00a17e" d="M826.36 10.52v-85.87l-75.12 42.93 75.12 42.94"/><path fill="#09a0aa" d="M525.87 10.52l75.12-42.94-75.12-42.93v85.87"/><path fill="#069fa7" d="M525.87 10.52v-85.87l-75.13 42.93 75.13 42.94"/><path fill="#1116b2" d="M225.37 10.52l75.12-42.94-75.12-42.93v85.87"/><path fill="#0210a3" d="M225.37 10.52v-85.87l-75.12 42.93 75.12 42.94"/><path fill="none" d="M0-246.83h1201.98V955.15H0z"/><g><path d="M601 654.58l.28-.16-.28.16v-.33l-74.55-42.61L601 569v-.33l-75.12-42.94L601 568.7l-75.12 42.94L601 654.58m450.74 257.63v42.94h-75.12l75.12-42.94m-300.5 0v42.94h-75.13l75.13-42.94m-601 0v42.94H75.12l75.12-42.94M0 912.21l75.12 42.94H0v-42.94m0 44h1201.65v-1h-149.91v-43l75.12-42.94-75.12 42.94v-85.88l-75.12-42.93 75.12 42.93v85.88l-75.12 42.94-75.13-42.94-75.13-42.94 75.13 42.94 75.13 42.94H751.24v-42.94l75.12-42.94-75.12 42.94-75.13 42.94L601 912.21l-75.12-42.94L601 912.21l75.12 42.94H450.74v-42.94l75.13-42.94-75.13 42.94v42.94H150.25v-42.94l75.13-42.94-75.13 42.94-75.13 42.94L0 912.21v-85.88l75.12-42.93L0 826.33V654.58l75.12-42.94L0 654.58V482.83l75.12-42.94L0 482.83V311.08l75.12-42.94L0 311.08V139.33l75.12-42.94L0 139.33V-32.42l75.12-42.93L0-32.42v-171.75l74.52-42.6L0-204.17V956.16" fill="#de8e3d"/><path fill="#f36b52" d="M751.24 482.83V396.95l-75.13 42.94 75.13 42.94"/><path fill="#db3c3a" d="M751.24 396.96l75.12-42.94-75.12-42.94V396.96"/><path fill="#1fc0a3" d="M600.99 225.2v-85.87l-75.12 42.94 75.12 42.93"/><path fill="#008a2f" d="M751.24 225.2l75.12-42.93-75.12-42.94v85.87"/><path fill="#00694e" d="M1051.74 53.45l75.12-42.93-75.12-42.94v85.87"/><path fill="#1fc092" d="M450.74 225.2l75.13-42.93-75.13-42.94v85.87"/><path fill="#cbbb2a" d="M300.49 482.83l75.13-42.94-75.13-42.94v85.88"/><path fill="#007466" d="M901.49 139.33l75.13-42.94-75.13-42.94v85.88"/><path fill="#8ece2d" d="M600.99 311.08l75.12-42.94-75.12-42.94V311.08"/><path fill="#008a5c" d="M901.49 53.45v-85.87l-75.13 42.94 75.13 42.93"/><path fill="#becf2e" d="M600.99 396.95v-85.87l-75.12 42.94 75.12 42.93"/><path fill="#c92853" d="M901.49 311.08l75.13-42.94-75.13-42.94V311.08"/><path fill="#008893" d="M150.25 311.07V225.2l-75.13 42.94 75.13 42.93"/><path fill="#73b00f" d="M300.49 311.08l75.13-42.94-75.13-42.94V311.08"/><path d="M150.25 482.88V397l-75.13 42.89 75.12 42.94" fill="#b2aa11"/><path d="M150.25 826.34v-85.88L75.12 783.4l75.12 42.93" fill="#bc2f1b"/><path fill="#c6cb2a" d="M450.74 396.96l75.13-42.94-75.13-42.94V396.96"/><path d="M150.25 654.58v-85.87l-75.13 42.93 75.12 42.94" fill="#cdb22c"/><path fill="#10b1a7" d="M600.99 139.33l75.12-42.94-75.12-42.94v85.88"/><path fill="#dc3b45" d="M751.24 568.71l75.12-42.94-75.12-42.94v85.88"/><path d="M1051.74 654.58v-85.87l-75.12 42.94 75.12 42.94" fill="#f554e9"/><path fill="#dfa73e" d="M600.99 568.71v-85.88l-75.12 42.94 75.12 42.94"/><path fill="#e03f56" d="M901.49 740.46v-85.88l-75.13 42.94 75.13 42.94"/><path fill="#cf2e49" d="M901.49 568.71v-85.88l-75.13 42.94 75.13 42.94"/><path fill="#00999c" d="M450.74 53.45l75.13-42.93-75.13-42.94v85.87"/><path fill="#dcb33b" d="M450.74 568.71l75.13-42.94-75.13-42.94v85.88"/><path d="M1051.74 482.88V397l-75.12 42.94 75.12 42.94" fill="#fd5c70"/><path fill="#0d71ae" d="M1051.74 311.07V225.2l-75.12 42.94 75.12 42.93"/><path fill="#d87837" d="M600.99 740.46v-85.88l-75.12 42.94 75.12 42.94"/><path fill="#d2c231" d="M300.49 396.95v-85.87l-75.12 42.94 75.12 42.93"/><path fill="#d45b33" d="M751.24 740.46l75.12-42.94-75.12-42.94v85.88"/><path fill="#009883" d="M751.24 139.33V53.45l-75.13 42.94 75.13 42.94"/><path fill="#00894b" d="M300.49 225.2v-85.87l-75.12 42.94 75.12 42.93"/><path fill="#daa039" d="M300.49 740.46v-85.88l-75.12 42.94 75.12 42.94"/><path fill="#e4c643" d="M300.49 568.71v-85.88l-75.12 42.94 75.12 42.94"/><path fill="#006474" d="M1051.74 225.2l75.12-42.93-75.12-42.94v85.87"/><path fill="#006f5b" d="M1051.74 139.33V53.45l-75.12 42.94 75.12 42.94"/><path fill="#c82744" d="M901.49 396.95v-85.87l-75.13 42.94 75.13 42.93"/><path fill="#db8a3a" d="M450.74 740.46l75.13-42.94-75.13-42.94v85.88"/><path fill="#007f51" d="M901.49 225.2v-85.87l-75.13 42.94 75.13 42.93"/><path fill="#0b3cac" d="M300.49 53.45v-85.87l-75.12 42.94 75.12 42.93"/><path fill="#009378" d="M751.24 53.45l75.12-42.93-75.12-42.94v85.87"/><path d="M450.74 826.34v-85.88l-75.12 42.94 75.12 42.93" fill="#d36e32"/><path fill="#02a390" d="M450.74 139.33V53.45l-75.12 42.94 75.12 42.94"/><path d="M450.74 482.88V397l-75.12 42.94 75.12 42.94" fill="#d6c835"/><path fill="#85cb2a" d="M450.74 311.07V225.2l-75.12 42.94 75.12 42.93"/><path fill="#ff797d" d="M1051.74 568.71l75.12-42.94-75.12-42.94v85.88"/><path fill="#11a8b2" d="M1051.74 740.46l75.12-42.94-75.12-42.94v85.88"/><path d="M1051.74 826.34v-85.88l-75.12 42.94 75.12 42.93" fill="#15b6b3"/><path fill="#f6556b" d="M1051.74 396.96l75.12-42.94-75.12-42.94V396.96"/><path fill="#0baaac" d="M600.99 53.45v-85.87l-75.12 42.94 75.12 42.93"/><path fill="#a01abb" d="M150.25 225.2l75.12-42.93-75.12-42.94v85.87"/><path fill="#c8ad27" d="M150.25 568.71l75.12-42.94-75.12-42.94v85.88"/><path fill="#c87627" d="M150.25 740.46l75.12-42.94-75.12-42.94v85.88"/><path fill="#abb615" d="M150.25 396.96l75.12-42.94-75.12-42.94V396.96"/><path fill="#d68c35" d="M751.24 826.33v-85.87l-75.13 42.94 75.13 42.93"/><path d="M450.74 654.58v-85.87l-75.12 42.94 75.12 42.94" fill="#e0a23f"/><path fill="#0b37ac" d="M1201.65 225.01v-85.49l-74.79 42.75 74.79 42.74"/><path fill="#0e73af" d="M1201.65 396.76v-85.49l-74.79 42.75 74.79 42.74"/><path fill="#3a9200" d="M0 654.58l75.12-42.94L0 568.71v85.87"/><path fill="#1db9be" d="M901.49 826.33l75.13-42.93-75.13-42.94v85.87"/><path fill="#005d73" d="M300.49 139.33l75.13-42.94-75.13-42.94v85.88"/><path fill="#2c2ccd" d="M0 826.33l75.12-42.93L0 740.46v85.87"/><path fill="#226dc3" d="M1201.65 568.51v-85.49l-74.79 42.75 74.79 42.74"/><path fill="#e46043" d="M751.24 654.58v-85.87l-75.13 42.93 75.13 42.94"/><path fill="#d83769" d="M901.49 654.58l75.13-42.94-75.13-42.93v85.87"/><path fill="#005073" d="M0 139.33l75.12-42.94L0 53.45v85.88"/><path d="M601 569l.28-.16-.28-.16v.32m.57 85.22l74.55-42.61L601.57 569v85.22m-.57.33l.28-.16-.28-.16v.33" fill="#da8039"/><path fill="#005f48" d="M1201.65 53.26v-85.49l-74.79 42.75 74.79 42.74"/><path fill="#009072" d="M0 482.83l75.12-42.94L0 396.95v85.88"/><path fill="#e1a640" d="M300.49 654.58l75.13-42.94-75.13-42.93v85.87"/><path fill="#d63552" d="M901.49 482.83l75.13-42.94-75.13-42.94v85.88"/><path fill="#006570" d="M0 311.08l75.12-42.94L0 225.2V311.08"/><path fill="#dc7d3b" d="M600.99 826.33l75.12-42.93-75.12-42.94v85.87"/><path fill="#c54c24" d="M300.49 826.33l75.13-42.93-75.13-42.94v85.87"/><path fill="#e3b542" d="M600.99 482.83l75.12-42.94-75.12-42.94v85.88"/><path fill="#c45923" d="M751.24 311.07V225.2l-75.13 42.94 75.13 42.93"/><path fill="#008ca1" d="M1201.65 740.27v-85.5l-74.79 42.75 74.79 42.75"/><path fill="#099aaa" d="M1126.86 869.27l74.79-42.75v-.38l-74.79-42.74v85.87"/><path fill="#008ca1" d="M1201.65 826.14v-85.49l-74.79 42.75 74.79 42.74"/><path fill="#009099" d="M1126.86 869.27V783.4l-75.12 42.93 75.12 42.94"/><path fill="#039ca4" d="M1051.74 826.33l75.12-42.93-75.12-42.94v85.87"/><path fill="#00929f" d="M1126.86 783.4v-85.88l-75.12 42.94 75.12 42.94"/><path fill="#0893a9" d="M1126.86 783.4l74.79-42.75v-.38l-74.79-42.75v85.88"/><path fill="#1693b7" d="M1126.86 697.52l74.79-42.75v-.38l-74.79-42.75v85.88"/><path fill="#0e7caf" d="M1201.65 654.39v-85.5l-74.79 42.75 74.79 42.75"/><path fill="#1faac0" d="M1126.86 697.52v-85.88l-75.12 42.94 75.12 42.94"/><path fill="#5698f7" d="M1051.74 654.58l75.12-42.94-75.12-42.93v85.87"/><path fill="#ff6985" d="M1126.86 611.64v-85.87l-75.12 42.94 75.12 42.93"/><path fill="#4273e3" d="M1126.86 611.64l74.79-42.75v-.38l-74.79-42.74v85.87"/><path fill="#7954f5" d="M1126.86 525.77l74.79-42.75v-.38l-74.79-42.75v85.88"/><path fill="#2167c2" d="M1201.65 482.64v-85.5l-74.79 42.75 74.79 42.75"/><path fill="#ff6c71" d="M1126.86 525.77v-85.88l-75.12 42.94 75.12 42.94"/><path fill="#ff7370" d="M1051.74 482.83l75.12-42.94-75.12-42.93v85.87"/><path fill="#f55464" d="M1126.86 439.89v-85.87l-75.12 42.94 75.12 42.93"/><path fill="#c842e3" d="M1126.86 439.89l74.79-42.75v-.38l-74.79-42.74v85.87"/><path fill="#2a70cb" d="M1126.86 354.02l74.79-42.75v-.38l-74.79-42.75v85.88"/><path fill="#00488f" d="M1201.65 310.89v-85.5l-74.79 42.75 74.79 42.75"/><path fill="#9141e2" d="M1126.86 354.02v-85.88l-75.12 42.94 75.12 42.94"/><path fill="#3b59dc" d="M1051.74 311.08l75.12-42.94-75.12-42.93v85.87"/><path fill="#075ca8" d="M1126.86 268.14v-85.87l-75.12 42.93v.01l75.12 42.93"/><path fill="#005686" d="M1126.86 268.14l74.79-42.75v-.38l-74.79-42.74v85.87"/><path fill="#005b5f" d="M1126.86 182.27l74.79-42.75v-.38l-74.79-42.75v85.88"/><path fill="#00515b" d="M1201.65 139.14v-85.5l-74.79 42.75 74.79 42.75"/><path fill="#005961" d="M1126.86 182.27V96.39l-75.12 42.94 75.12 42.94"/><path fill="#006658" d="M1051.74 139.33l75.12-42.94-75.12-42.94v85.88"/><path fill="#006854" d="M1126.86 96.39V10.52l-75.12 42.93 75.12 42.94"/><path fill="#006153" d="M1126.86 96.39l74.79-42.75v-.38l-74.79-42.74v85.87"/><path fill="#00694d" d="M1126.86 10.52l74.79-42.75v-.38l-74.79-42.74v85.87"/><path fill="#00684e" d="M1126.86 10.52v-85.87l-75.12 42.93 75.12 42.94"/><path fill="#09a3aa" d="M976.62 869.27V783.4l-75.13 42.93 75.13 42.94"/><path fill="#09a5aa" d="M976.62 869.27l75.12-42.94-75.12-42.93v85.87"/><path fill="#d56f34" d="M676.11 869.27V783.4l-75.12 42.93 75.12 42.94"/><path fill="#d47f33" d="M676.11 869.27l75.13-42.94-75.13-42.93v85.87"/><path fill="#b93718" d="M375.62 869.27V783.4l-75.13 42.93 75.13 42.94"/><path fill="#ca5a29" d="M375.62 869.27l75.12-42.94-75.12-42.93v85.87"/><path fill="#8c007c" d="M75.12 869.27V783.4L0 826.33l75.12 42.94"/><path fill="#b4132b" d="M75.12 869.27l75.13-42.94-75.13-42.93v85.87"/><path fill="#0ea9af" d="M976.62 783.4l75.12-42.94-75.12-42.94v85.88"/><path fill="#1aabbb" d="M1051.74 740.46v-85.88l-75.12 42.94 75.12 42.94"/><path fill="#0aa6ab" d="M976.62 783.4v-85.88l-75.13 42.94 75.13 42.94"/><path fill="#1792b8" d="M901.49 740.46l75.13-42.94-75.13-42.94v85.88"/><path fill="#c639da" d="M976.62 697.52v-85.88l-75.13 42.94 75.13 42.94"/><path fill="#4b8dec" d="M976.62 697.52l75.12-42.94-75.12-42.94v85.88"/><path fill="#d67a35" d="M676.11 783.4l75.13-42.94-75.13-42.94v85.88"/><path fill="#d36932" d="M751.24 740.46v-85.88l-75.13 42.94 75.13 42.94"/><path fill="#dc7c3b" d="M676.11 783.4v-85.88l-75.12 42.94 75.12 42.94"/><path fill="#d77536" d="M600.99 740.46l75.12-42.94-75.12-42.94v85.88"/><path fill="#d77036" d="M676.11 697.52v-85.88l-74.54 42.61v.33l-.29-.16-.29.16 75.12 42.94"/><path fill="#e57044" d="M676.11 697.52l75.13-42.94-75.13-42.94v85.88"/><path fill="#d98638" d="M375.62 783.4l75.12-42.94-75.12-42.94v85.88"/><path fill="#dd953c" d="M450.74 740.46v-85.88l-75.12 42.94 75.12 42.94"/><path fill="#d06b2f" d="M375.62 783.4v-85.88l-75.13 42.94 75.13 42.94"/><path fill="#d78736" d="M300.49 740.46l75.13-42.94-75.13-42.94v85.88"/><path fill="#db973a" d="M375.62 697.52v-85.88l-75.13 42.94 75.13 42.94"/><path fill="#e19f40" d="M375.62 697.52l75.12-42.94-75.12-42.94v85.88"/><path fill="#b04d0f" d="M75.12 783.4l75.13-42.94-75.13-42.94v85.88"/><path fill="#bf871e" d="M150.25 740.46v-85.88l-75.13 42.94 75.13 42.94"/><path fill="#765000" d="M75.12 783.4v-85.88L0 740.46l75.12 42.94"/><path fill="#009800" d="M0 740.46l75.12-42.94L0 654.58v85.88"/><path fill="#7c8000" d="M75.12 697.52v-85.88L0 654.58l75.12 42.94"/><path fill="#bb961a" d="M75.12 697.52l75.13-42.94-75.13-42.94v85.88"/><path fill="#ff6680" d="M976.62 611.64l75.12-42.93-75.12-42.94v85.87"/><path fill="#ff6f83" d="M1051.74 568.71v-85.88l-75.12 42.94 75.12 42.94"/><path fill="#ea496d" d="M976.62 611.64v-85.87l-75.13 42.94 75.13 42.93"/><path fill="#dd3c57" d="M901.49 568.71l75.13-42.94-75.13-42.94v85.88"/><path fill="#f04f69" d="M976.62 525.77v-85.88l-75.13 42.94 75.13 42.94"/><path fill="#f8576e" d="M976.62 525.77l75.12-42.94-75.12-42.94v85.88"/><path fill="#ec684b" d="M676.11 611.64l75.13-42.93-75.13-42.94v85.87"/><path fill="#e35042" d="M751.24 568.71v-85.88l-75.13 42.94 75.13 42.94"/><path fill="#de8e3d" d="M676.11 611.64v-85.87l-75.12 42.94.29.16.29-.16v.32l74.54 42.61"/><path fill="#e2a141" d="M600.99 568.71l75.12-42.94-75.12-42.94v85.88"/><path fill="#e5a944" d="M676.11 525.77v-85.88l-75.12 42.94 75.12 42.94"/><path fill="#f27a51" d="M676.11 525.77l75.13-42.94-75.13-42.94v85.88"/><path fill="#ddae3c" d="M375.62 611.64l75.12-42.93-75.12-42.94v85.87"/><path fill="#dab839" d="M450.74 568.71v-85.88l-75.12 42.94 75.12 42.94"/><path fill="#dab639" d="M375.62 611.64v-85.87l-75.13 42.94 75.13 42.93"/><path fill="#e0c03f" d="M300.49 568.71l75.13-42.94-75.13-42.94v85.88"/><path fill="#d6c035" d="M375.62 525.77v-85.88l-75.13 42.94 75.13 42.94"/><path fill="#d3b632" d="M375.62 525.77l75.12-42.94-75.12-42.94v85.88"/><path fill="#b49613" d="M75.12 611.64l75.13-42.93-75.13-42.94v85.87"/><path fill="#b9a618" d="M150.25 568.71v-85.88l-75.13 42.94 75.13 42.94"/><path fill="#7e9600" d="M75.12 611.64v-85.87L0 568.71l75.12 42.93"/><path fill="#009161" d="M0 568.71l75.12-42.94L0 482.83v85.88"/><path fill="#07a867" d="M75.12 525.77v-85.88L0 482.83l75.12 42.94"/><path fill="#7e9d00" d="M75.12 525.77l75.13-42.94-75.13-42.94v85.88"/><path fill="#ed4c6a" d="M976.62 439.89l75.12-42.94-75.12-42.93v85.87"/><path fill="#e84775" d="M1051.74 396.95V311.07l-75.12 42.95 75.12 42.93"/><path fill="#df3e5d" d="M976.62 439.89v-85.87l-75.13 42.93 75.13 42.94"/><path fill="#d43355" d="M901.49 396.95l75.13-42.93-75.13-42.94v85.87"/><path fill="#d13061" d="M976.62 354.02v-85.88l-75.13 42.94 75.13 42.94"/><path fill="#d5347f" d="M976.62 354.02l75.12-42.95-75.12-42.93v85.88"/><path fill="#ee7c4d" d="M676.11 439.89l75.13-42.94-75.13-42.93v85.87"/><path fill="#d95d38" d="M751.24 396.95V311.07l-75.13 42.95 75.13 42.93"/><path fill="#e29a41" d="M676.11 439.89v-85.87l-75.12 42.93 75.12 42.94"/><path fill="#dab639" d="M600.99 396.95l75.12-42.93-75.12-42.94v85.87"/><path fill="#c2af21" d="M676.11 354.02v-85.88l-75.12 42.94 75.12 42.94"/><path fill="#d98038" d="M676.11 354.02l75.13-42.95-75.13-42.93v85.88"/><path fill="#d3c732" d="M375.62 439.89l75.12-42.94-75.12-42.93v85.87"/><path fill="#c3c726" d="M450.74 396.95V311.07l-75.12 42.95 75.12 42.93"/><path fill="#cec32d" d="M375.62 439.89v-85.87l-75.13 42.93 75.13 42.94"/><path fill="#c6b925" d="M300.49 396.95l75.13-42.93-75.13-42.94v85.87"/><path fill="#a7b615" d="M375.62 354.02v-85.88l-75.13 42.94 75.13 42.94"/><path fill="#afc01f" d="M375.62 354.02l75.12-42.95-75.12-42.93v85.88"/><path fill="#56bf1e" d="M75.12 439.89l75.13-42.94-75.13-42.93v85.87"/><path fill="#4dc423" d="M150.25 396.95V311.07l-75.13 42.95 75.13 42.93"/><path fill="#02a378" d="M75.12 439.89v-85.87L0 396.95l75.12 42.94"/><path fill="#009274" d="M0 396.95l75.12-42.93L0 311.08v85.87"/><path fill="#009690" d="M75.12 354.02v-85.88L0 311.08l75.12 42.94"/><path fill="#009b82" d="M75.12 354.02l75.13-42.95-75.13-42.93v85.88"/><path fill="#00728c" d="M976.62 268.14l75.12-42.94-75.12-42.93v85.87"/><path fill="#006f68" d="M1051.74 225.2v-85.87l-75.12 42.94 75.12 42.93"/><path fill="#1768b8" d="M976.62 268.14v-85.87l-75.13 42.93 75.13 42.94"/><path fill="#00785a" d="M901.49 225.2l75.13-42.93-75.13-42.94v85.87"/><path fill="#007859" d="M976.62 182.27V96.39l-75.13 42.94 75.13 42.94"/><path fill="#00705f" d="M976.62 182.27l75.12-42.94-75.12-42.94v85.88"/><path fill="#0dae35" d="M676.11 268.14l75.13-42.94-75.13-42.93v85.87"/><path fill="#01a273" d="M751.24 225.2v-85.87l-75.13 42.94 75.13 42.93"/><path fill="#54c726" d="M676.11 268.14v-85.87l-75.12 42.93 75.12 42.94"/><path fill="#2dce86" d="M600.99 225.2l75.12-42.93-75.12-42.94v85.87"/><path fill="#10b196" d="M676.11 182.27V96.39l-75.12 42.94 75.12 42.94"/><path fill="#02a38d" d="M676.11 182.27l75.13-42.94-75.13-42.94v85.88"/><path fill="#7ac423" d="M375.62 268.14l75.12-42.94-75.12-42.93v85.87"/><path fill="#2acb62" d="M450.74 225.2v-85.87l-75.12 42.94 75.12 42.93"/><path fill="#20c13d" d="M375.62 268.14v-85.87l-75.13 42.93 75.13 42.94"/><path fill="#13b453" d="M300.49 225.2l75.13-42.93-75.13-42.94v85.87"/><path fill="#008671" d="M375.62 182.27V96.39l-75.13 42.94 75.13 42.94"/><path fill="#01a27d" d="M375.62 182.27l75.12-42.94-75.12-42.94v85.88"/><path fill="#5e0dae" d="M150.25 139.33V53.45L75.12 96.39l75.13 42.94"/><path fill="#5b00a1" d="M150.25 53.45l75.12-42.93-75.12-42.94v85.87"/><path fill="#005892" d="M75.12 268.14l75.13-42.94-75.13-42.93v85.87"/><path fill="#3423c4" d="M150.25 225.2v-85.87l-75.13 42.94 75.13 42.93"/><path fill="#00547e" d="M75.12 268.14v-85.87L0 225.2l75.12 42.94"/><path fill="#005974" d="M0 225.2l75.12-42.93L0 139.33v85.87"/><path fill="#005172" d="M75.12 182.27V96.39L0 139.33l75.12 42.94"/><path fill="#6317b8" d="M75.12 182.27l75.13-42.94-75.13-42.94v85.88"/><path fill="#007c5e" d="M976.62 96.39l75.12-42.94-75.12-42.93v85.87"/><path fill="#007054" d="M1051.74 53.45v-85.87l-75.12 42.94 75.12 42.93"/><path fill="#007f58" d="M976.62 96.39V10.52l-75.13 42.93 75.13 42.94"/><path fill="#007b5a" d="M901.49 53.45l75.13-42.93-75.13-42.94v85.87"/><path fill="#007f60" d="M976.62 10.52v-85.87l-75.13 42.93 75.13 42.94"/><path fill="#00785d" d="M976.62 10.52l75.12-42.94-75.12-42.93v85.87"/><path fill="#00a196" d="M676.11 96.39l75.13-42.94-75.13-42.93v85.87"/><path fill="#00998c" d="M751.24 53.45v-85.87l-75.13 42.94 75.13 42.93"/><path fill="#05a6a1" d="M676.11 96.39V10.52l-75.12 42.93 75.12 42.94"/><path fill="#07a8a8" d="M600.99 53.45l75.12-42.93-75.12-42.94v85.87"/><path fill="#05a4a6" d="M676.11 10.52v-85.87l-75.12 42.93 75.12 42.94"/><path fill="#009e96" d="M676.11 10.52l75.13-42.94-75.13-42.93v85.87"/><path fill="#009287" d="M375.62 96.39l75.12-42.94-75.12-42.93v85.87"/><path fill="#00838d" d="M450.74 53.45v-85.87l-75.12 42.94 75.12 42.93"/><path fill="#00697b" d="M375.62 96.39V10.52l-75.13 42.93 75.13 42.94"/><path fill="#00557b" d="M300.49 53.45l75.13-42.93-75.13-42.94v85.87"/><path fill="#005680" d="M375.62 10.52v-85.87l-75.13 42.93 75.13 42.94"/><path fill="#006787" d="M375.62 10.52l75.12-42.94-75.12-42.93v85.87"/><path fill="#003090" d="M75.12 96.39l75.13-42.94-75.13-42.93v85.87"/><path fill="#091faa" d="M150.25 53.45v-85.87L75.12 10.52l75.13 42.93"/><path fill="#004870" d="M75.12 96.39V10.52L0 53.45l75.12 42.94"/><path fill="#00506a" d="M0 53.45l75.12-42.93L0-32.42v85.87"/><path fill="#004b6a" d="M75.12 10.52v-85.87L0-32.42l75.12 42.94"/><path fill="#00264c" d="M75.12 10.52l75.13-42.94-75.13-42.93v85.87"/><path fill="#14b562" d="M826.36 869.27l75.13-42.94-75.13-42.93v85.87"/><path fill="#12b38a" d="M901.49 826.33v-85.87l-75.13 42.94 75.13 42.93"/><path fill="#62ad0c" d="M826.36 869.27V783.4l-75.12 42.93 75.12 42.94"/><path fill="#6697ff" d="M751.24 740.46"/><path fill="#ba8919" d="M751.24 826.33l75.12-42.93-75.12-42.94v85.87"/><path fill="#bc761b" d="M826.36 783.4v-85.88l-75.12 42.94 75.12 42.94"/><path fill="#32bd1c" d="M826.36 783.4l75.13-42.94-75.13-42.94v85.88"/><path fill="#d56934" d="M525.87 869.27l75.12-42.94-75.12-42.93v85.87"/><path fill="#e98648" d="M600.99 826.33v-85.87l-75.12 42.94 75.12 42.93"/><path fill="#c84f27" d="M525.87 869.27V783.4l-75.13 42.93 75.13 42.94"/><path fill="#d36432" d="M450.74 826.33l75.13-42.93-75.13-42.94v85.87"/><path fill="#d87537" d="M525.87 783.4v-85.88l-75.13 42.94 75.13 42.94"/><path fill="#da7f39" d="M525.87 783.4l75.12-42.94-75.12-42.94v85.88"/><path fill="#b92b18" d="M225.37 869.27l75.12-42.94-75.12-42.93v85.87"/><path fill="#cd602c" d="M300.49 826.33v-85.87l-75.12 42.94 75.12 42.93"/><path fill="#ba2119" d="M225.37 869.27V783.4l-75.12 42.93 75.12 42.94"/><path fill="#c0311f" d="M150.25 826.33l75.12-42.93-75.12-42.94v85.87"/><path fill="#cd602c" d="M225.37 783.4v-85.88l-75.12 42.94 75.12 42.94"/><path fill="#cd6c2c" d="M225.37 783.4l75.12-42.94-75.12-42.94v85.88"/><path fill="#dc3b4d" d="M826.36 697.52l75.13-42.94-75.13-42.94v85.88"/><path fill="#d53457" d="M901.49 654.58v-85.87l-75.13 42.93 75.13 42.94"/><path fill="#de453d" d="M826.36 697.52v-85.88l-75.12 42.94 75.12 42.94"/><path fill="#de493d" d="M751.24 654.58l75.12-42.94-75.12-42.93v85.87"/><path fill="#6697ff" d="M751.24 568.71"/><path fill="#d93845" d="M826.36 611.64v-85.87l-75.12 42.94 75.12 42.93"/><path fill="#d4334e" d="M826.36 611.64l75.13-42.93-75.13-42.94v85.87"/><path fill="#da8139" d="M525.87 697.52l75.12-42.94-75.12-42.94v85.88"/><path fill="#e98648" d="M600.99 654.26v-85.23l-74.55 42.61 74.55 42.62"/><path fill="#e28f41" d="M601.28 654.42l.29-.17v-85.22l-.29-.16-.29.16v85.23l.29.16"/><path fill="#de7f3d" d="M601.57 654.58v-.33l-.29.17.29.16"/><path fill="#e59a44" d="M601.57 569.03v-.32l-.29.16.29.16"/><path fill="#dd8c3c" d="M525.87 697.52v-85.88l-75.13 42.94 75.13 42.94"/><path fill="#df923e" d="M450.74 654.58l75.13-42.94-75.13-42.93v85.87"/><path fill="#dea33d" d="M525.87 611.64v-85.87l-75.13 42.94 75.13 42.93"/><path fill="#de983d" d="M525.87 611.64l75.12-42.93-75.12-42.94v85.87"/><path fill="#e0ba3f" d="M225.37 697.52l75.12-42.94-75.12-42.94v85.88"/><path fill="#e4c543" d="M300.49 654.58v-85.87l-75.12 42.93 75.12 42.94"/><path fill="#e3c342" d="M225.37 697.52v-85.88l-75.12 42.94 75.12 42.94"/><path fill="#debf3d" d="M150.25 654.58l75.12-42.94-75.12-42.93v85.87"/><path fill="#d2b731" d="M225.37 611.64v-85.87l-75.12 42.94 75.12 42.93"/><path fill="#d9be38" d="M225.37 611.64l75.12-42.93-75.12-42.94v85.87"/><path fill="#ba1933" d="M826.36 525.77l75.13-42.94-75.13-42.94v85.88"/><path fill="#cc2b53" d="M901.49 482.83v-85.88l-75.13 42.94 75.13 42.94"/><path fill="#d73647" d="M826.36 525.77v-85.88l-75.12 42.94 75.12 42.94"/><path fill="#ef4e58" d="M751.24 482.83l75.12-42.94-75.12-42.93v85.87"/><path fill="#6697ff" d="M751.24 396.96v-.01.01"/><path fill="#e44353" d="M826.36 439.89v-85.87l-75.12 42.94 75.12 42.93"/><path fill="#c82745" d="M826.36 439.89l75.13-42.94-75.13-42.93v85.87"/><path fill="#dfc73e" d="M525.87 525.77l75.12-42.94-75.12-42.94v85.88"/><path fill="#dbc53a" d="M600.99 482.83v-85.88l-75.12 42.94 75.12 42.94"/><path fill="#e3cb42" d="M525.87 525.77v-85.88l-75.13 42.94 75.13 42.94"/><path fill="#d9cb38" d="M450.74 482.83l75.13-42.94-75.13-42.93v85.87"/><path fill="#e0d43f" d="M525.87 439.89v-85.87l-75.13 42.94 75.13 42.93"/><path fill="#d4cd33" d="M525.87 439.89l75.12-42.94-75.12-42.93v85.87"/><path fill="#d2be31" d="M225.37 525.77l75.12-42.94-75.12-42.94v85.88"/><path fill="#cbba2a" d="M300.49 482.83v-85.88l-75.12 42.94 75.12 42.94"/><path fill="#ccba2b" d="M225.37 525.77v-85.88l-75.12 42.94 75.12 42.94"/><path fill="#c0b71f" d="M150.25 482.83l75.12-42.94-75.12-42.93v85.87"/><path fill="#bdb21c" d="M225.37 439.89v-85.87l-75.12 42.94 75.12 42.93"/><path fill="#c8bd27" d="M225.37 439.89l75.12-42.94-75.12-42.93v85.87"/><path fill="#c92841" d="M826.36 354.02l75.13-42.94-75.13-42.94v85.88"/><path fill="#c82727" d="M901.49 311.08V225.2l-75.13 42.94 75.13 42.94"/><path fill="#ce2d35" d="M826.36 354.02v-85.88l-75.12 42.94 75.12 42.94"/><path fill="#6697ff" d="M751.24 225.21v-.01.01"/><path fill="#cd3b2c" d="M751.24 311.08l75.12-42.94-75.12-42.93v85.87"/><path fill="#b43513" d="M826.36 268.14v-85.87l-75.12 42.93v.01l75.12 42.93"/><path fill="#297a00" d="M826.36 268.14l75.13-42.94-75.13-42.93v85.87"/><path fill="#94d635" d="M525.87 354.02l75.12-42.94-75.12-42.94v85.88"/><path fill="#5de443" d="M600.99 311.08V225.2l-75.12 42.94 75.12 42.94"/><path fill="#96cc2b" d="M525.87 354.02v-85.88l-75.13 42.94 75.13 42.94"/><path fill="#57dd3c" d="M450.74 311.08l75.13-42.94-75.13-42.93v85.87"/><path fill="#2ecf80" d="M525.87 268.14v-85.87l-75.13 42.93v.01l75.13 42.93"/><path fill="#30d18a" d="M525.87 268.14l75.12-42.94-75.12-42.93v85.87"/><path fill="#b8ab17" d="M225.37 354.02l75.12-42.94-75.12-42.94v85.88"/><path fill="#8da100" d="M300.49 311.08V225.2l-75.12 42.94 75.12 42.94"/><path fill="#96aa09" d="M225.37 354.02v-85.88l-75.12 42.94 75.12 42.94"/><path fill="#23b00f" d="M150.25 311.08l75.12-42.94-75.12-42.94V311.08"/><path fill="#6c8000" d="M225.37 268.14v-85.87l-75.12 42.93 75.12 42.94"/><path fill="#6c8600" d="M225.37 268.14l75.12-42.94-75.12-42.93v85.87"/><path fill="#00854c" d="M826.36 182.27l75.13-42.94-75.13-42.94v85.88"/><path fill="#008152" d="M901.49 139.33V53.45l-75.13 42.94 75.13 42.94"/><path fill="#008946" d="M826.36 182.27V96.39l-75.12 42.94 75.12 42.94"/><path fill="#008f65" d="M751.24 139.33l75.12-42.94-75.12-42.94v85.88"/><path fill="#00996e" d="M826.36 96.39V10.52l-75.12 42.93 75.12 42.94"/><path fill="#008856" d="M826.36 96.39l75.13-42.94-75.13-42.93v85.87"/><path fill="#11b2a2" d="M525.87 182.27l75.12-42.94-75.12-42.94v85.88"/><path fill="#09aaa5" d="M600.99 139.33V53.45l-75.12 42.94 75.12 42.94"/><path fill="#10b1a3" d="M525.87 182.27V96.39l-75.13 42.94 75.13 42.94"/><path fill="#04a59a" d="M450.74 139.33l75.13-42.94-75.13-42.94v85.88"/><path fill="#07a8a6" d="M525.87 96.39V10.52l-75.13 42.93 75.13 42.94"/><path fill="#11b2b1" d="M525.87 96.39l75.12-42.94-75.12-42.93v85.87"/><path fill="#006a82" d="M225.37 182.27l75.12-42.94-75.12-42.94v85.88"/><path fill="#00627e" d="M300.49 139.33V53.45l-75.12 42.94 75.12 42.94"/><path fill="#6317b8" d="M225.37 182.27V96.39l-75.12 42.94 75.12 42.94"/><path fill="#5b00a1" d="M150.25 139.33l75.12-42.94-75.12-42.94v85.88"/><path fill="#2323c4" d="M225.37 96.39V10.52l-75.12 42.93 75.12 42.94"/><path fill="#2115b6" d="M225.37 96.39l75.12-42.94-75.12-42.93v85.87"/><path fill="#008d61" d="M826.36 10.52l75.13-42.94-75.13-42.93v85.87"/><path fill="#00a17e" d="M826.36 10.52v-85.87l-75.12 42.93 75.12 42.94"/><path fill="#09a0aa" d="M525.87 10.52l75.12-42.94-75.12-42.93v85.87"/><path fill="#069fa7" d="M525.87 10.52v-85.87l-75.13 42.93 75.13 42.94"/><path fill="#1116b2" d="M225.37 10.52l75.12-42.94-75.12-42.93v85.87"/><path fill="#0210a3" d="M225.37 10.52v-85.87l-75.12 42.93 75.12 42.94"/></g><path fill="none" d="M0-246.83h1201.98V955.15H0z"/><path style="mix-blend-mode:hue" fill="url(#b)" d="M0-246.1h1201.98V955.88H0z"/><g opacity=".37"><path fill="#fff" d="M-20.68 659.67L225.38 519.9l150.24 85.88 225.37-128.82 225.37 128.82 150.25-85.87 247.14 139.76v343.9H-20.68v-343.9z"/></g><g opacity=".4"><path fill="#fff" d="M-20.68 601.91l246.06-139.76 150.24 85.87L600.99 419.2l225.37 128.82 150.25-85.87 247.14 139.76v343.9H-20.68v-343.9z"/></g><g opacity=".67"><path fill="#fff" d="M-20.68 672.65l246.06-139.77 150.24 85.87 225.37-128.81 225.37 128.81 150.25-85.87 247.14 139.76v343.91H-20.68v-343.9z"/></g><g opacity=".67"><path fill="#fff" d="M-20.68 680.94l246.06-139.77 150.24 85.87 225.37-128.81 225.37 128.81 150.25-85.87 247.14 139.76v343.91H-20.68v-343.9z"/></g><path fill="#fff" d="M-22.1 696.57L223.95 556.8l150.24 85.87 225.38-128.81 225.37 128.81 150.24-85.87 247.14 139.76v343.91H-22.1v-343.9z"/><path fill="none" stroke="#fff" stroke-miterlimit="10" stroke-width=".25" d="M-20.68 753.24l246.06-139.77 150.24 85.88 225.37-128.82 225.37 128.82 150.25-85.87 247.14 139.76"/><path fill="none" stroke="#fff" stroke-miterlimit="10" stroke-width=".25" d="M-20.68 783.39l246.06-139.76 150.24 85.87 225.37-128.82L826.36 729.5l150.25-85.87 247.14 139.76"/><g fill="none" stroke="#fff" stroke-miterlimit="10"><path stroke-width="6" d="M-20.68 719.42l246.06-139.77 150.24 85.88 225.37-128.82 225.37 128.82 150.25-85.87 247.14 139.76"/><path stroke-width="5.738" d="M-20.68 707.13l246.06-139.77 150.24 85.87 225.37-128.81 225.37 128.81 150.25-85.87 247.14 139.76"/><path stroke-width="5.476" d="M-20.68 694.83l246.06-139.77 150.24 85.88 225.37-128.82 225.37 128.82 150.25-85.87 247.14 139.76"/><path stroke-width="5.214" d="M-20.68 682.53l246.06-139.76 150.24 85.87 225.37-128.81 225.37 128.81 150.25-85.87 247.14 139.76"/><path stroke-width="4.952" d="M-20.68 670.24l246.06-139.77 150.24 85.88 225.37-128.82 225.37 128.82 150.25-85.87 247.14 139.76"/><path stroke-width="4.69" d="M-20.68 657.94l246.06-139.77 150.24 85.88 225.37-128.82 225.37 128.82 150.25-85.87 247.14 139.76"/><path stroke-width="4.429" d="M-20.68 645.65l246.06-139.77 150.24 85.87 225.37-128.81 225.37 128.81 150.25-85.87 247.14 139.76"/><path stroke-width="4.167" d="M-20.68 633.35l246.06-139.77 150.24 85.88 225.37-128.82 225.37 128.82 150.25-85.87 247.14 139.76"/><path stroke-width="3.905" d="M-20.68 621.05l246.06-139.76 150.24 85.87 225.37-128.81 225.37 128.81 150.25-85.87 247.14 139.76"/><path stroke-width="3.643" d="M-20.68 608.76l246.06-139.77 150.24 85.88 225.37-128.82 225.37 128.82L976.61 469l247.14 139.75"/><path stroke-width="3.381" d="M-20.68 596.46l246.06-139.77 150.24 85.88 225.37-128.82 225.37 128.82 150.25-85.87 247.14 139.76"/><path stroke-width="3.119" d="M-20.68 584.17L225.38 444.4l150.24 85.87 225.37-128.81 225.37 128.81 150.25-85.87 247.14 139.76"/><path stroke-width="2.857" d="M-20.68 571.87L225.38 432.1l150.24 85.88 225.37-128.82 225.37 128.82 150.25-85.87 247.14 139.76"/><path stroke-width="2.595" d="M-20.68 559.58l246.06-139.77 150.24 85.87 225.37-128.81 225.37 128.81 150.25-85.87 247.14 139.76"/><path stroke-width="2.333" d="M-20.68 547.28l246.06-139.77 150.24 85.87 225.37-128.81 225.37 128.81 150.25-85.86 247.14 139.75"/><path stroke-width="2.071" d="M-20.68 534.98l246.06-139.77 150.24 85.88 225.37-128.82 225.37 128.82 150.25-85.87 247.14 139.76"/><path stroke-width="1.81" d="M-20.68 522.69l246.06-139.77 150.24 85.87 225.37-128.81 225.37 128.81 150.25-85.87 247.14 139.76"/><path stroke-width="1.548" d="M-20.68 510.39l246.06-139.77 150.24 85.88 225.37-128.82L826.36 456.5l150.25-85.87 247.14 139.76"/><path stroke-width="1.286" d="M-20.68 498.1l246.06-139.77 150.24 85.87 225.37-128.81L826.36 444.2l150.25-85.87 247.14 139.76"/><path stroke-width="1.024" d="M-20.68 485.8l246.06-139.77 150.24 85.87 225.37-128.81L826.36 431.9l150.25-85.86 247.14 139.76"/><path stroke-width=".762" d="M-20.68 473.5l246.06-139.76 150.24 85.87 225.37-128.82 225.37 128.82 150.25-85.87 247.14 139.76"/><path stroke-width=".5" d="M-20.68 461.21l246.06-139.77 150.24 85.87L600.99 278.5l225.37 128.81 150.25-85.87 247.14 139.76"/></g><path fill="none" stroke="#fff" stroke-miterlimit="10" stroke-width=".25" d="M-20.68 450.86l246.06-139.77 150.24 85.87 225.37-128.81 225.37 128.81 150.25-85.87 247.14 139.76"/></g><path transform="rotate(-90 600.83 400)" style="mix-blend-mode:multiply" opacity=".78" fill="url(#c)" d="M200.83-200.83h800v1201.65h-800z"/></g></svg>